<?xml version="1.0" encoding="UTF-8" standalone="no"?>
<!-- Created with Inkscape (http://www.inkscape.org/) -->

<svg
   xmlns:dc="http://purl.org/dc/elements/1.1/"
   xmlns:cc="http://creativecommons.org/ns#"
   xmlns:rdf="http://www.w3.org/1999/02/22-rdf-syntax-ns#"
   xmlns:svg="http://www.w3.org/2000/svg"
   xmlns="http://www.w3.org/2000/svg"
   version="1.2"
   width="580"
   height="530"
   viewBox="0 0 8268 11692"
   id="svg2"
   xml:space="preserve"
   style="fill-rule:evenodd"><metadata
   id="metadata284"><rdf:RDF><cc:Work
       rdf:about=""><dc:format>image/svg+xml</dc:format><dc:type
         rdf:resource="http://purl.org/dc/dcmitype/StillImage" /><dc:title></dc:title></cc:Work></rdf:RDF></metadata>
 <defs
   id="defs4">
  <style
   type="text/css"
   id="style6" />
 
  
  
  
  
  
  
  
  
  
  
  
  
  
  
  
  
  
  
  
  
  
  
  
  
  
  
  
  
  
  
  
  
  
  
  
  
  
  
  
  
  
  
  
  
  
  
  
  
  
  
  
  
  
  
  
  
  
  
  
  
  
  
  
  
  
  
  
  
  
  
  
  
  
  
  
  
  
  
  
  
  
  
  
  
  
  
  
  
  
  
  
  
  
  
  
  
  
  
  
  
  
  
  
  
  
  
  
  
  
  
  
  
  
  
  
  
  
  
  
  
  
  
  
  
  
  
  
  
  
  
  
  
  
  
  
  
  
 </defs>
 
<g
   id="layer2"
   style="display:inline"><path
     d="m 6686.8914,6114.1921 c 45.6711,41.7 -69.4995,53.614 -41.6999,103.257 35.7429,105.242 -224.384,144.956 -67.5138,200.556 -7.9426,45.671 -59.5709,51.628 -97.2992,21.842 -59.571,1.986 -204.5273,95.314 -198.5701,-53.614 55.5996,-101.27 -27.7999,-186.656 67.5138,-299.84 37.7283,-27.8 138.9991,29.785 184.6703,-53.614 49.6424,3.971 91.342,133.041 152.8989,81.413 z"
     id="Lake Victoria"
     style="fill:#cccccc;fill-opacity:1;fill-rule:evenodd;stroke:#000000;stroke-opacity:0.90980392" /><path
     d="m 6960.9181,5617.7671 c -25.8139,-19.857 -49.6425,-37.728 -57.5853,-73.471 -5.9572,-45.671 -27.7998,-138.999 35.7427,-168.785 45.6711,83.4 25.8141,184.671 43.6855,252.184 l -21.8429,-9.928 z"
     id="Lake Rudolf"
     style="fill:#cccccc;fill-opacity:1;fill-rule:evenodd;stroke:#000000;stroke-opacity:0.90980392" /><path
     d="m 3752.0248,4104.6621 c 19.857,41.7 -150.9132,137.014 -170.7702,0 0,-7.942 -1.9854,-17.871 -3.9713,-25.813 0,0 1.9854,-299.8414 174.7415,25.813 z"
     id="Lake Chad"
     style="fill:#cccccc;fill-opacity:1;fill-rule:evenodd;stroke:#000000;stroke-opacity:0.90980392" /><path
     d="m 6657.1059,7774.2391 c -13.9,27.799 -25.8142,25.814 -35.7427,63.542 -5.9571,17.871 -7.9428,73.471 -13.9,93.328 3.9715,11.914 7.9429,25.814 11.9144,37.728 25.8139,75.457 63.5425,158.856 51.6281,240.27 31.7714,-5.957 71.4853,27.8 83.3997,-19.857 -57.5855,-99.285 -45.6714,-162.827 -17.8713,-268.069 1.9854,-11.915 5.9569,-61.557 9.9282,-73.471 -5.9569,-7.943 -11.9141,-17.872 -15.8854,-25.815 -11.9144,-17.871 -19.857,-67.513 -33.757,-83.399 -25.8142,-25.814 -33.7568,-119.142 -33.7568,-119.142 11.9139,-31.771 17.8713,-73.471 -43.6855,-73.471 -25.8142,29.785 -13.8998,55.599 3.9713,75.456 0,0 35.7427,113.186 31.7713,142.971 l 1.9855,9.929 z"
     id="Lake Malawi"
     style="fill:#cccccc;fill-opacity:1;fill-rule:evenodd;stroke:#000000;stroke-opacity:0.90980392" /><path
     d="m 6001.8245,6991.8721 c 125.0991,99.285 83.3994,268.07 174.7415,385.226 -21.8424,39.714 -71.4851,-17.871 -79.4279,-57.585 0,0 -25.8142,-119.142 -47.6568,-109.214 -27.7999,-27.799 -59.571,-59.571 -85.3852,-85.385 -21.8426,-99.285 -73.4709,-222.398 -61.5566,-323.669 1.9855,-11.914 -3.9715,-49.643 -1.9854,-59.571 5.9572,-15.886 21.8428,7.943 31.7713,-5.957 7.9427,15.885 11.9142,21.843 19.857,35.742 35.7425,75.457 65.528,146.942 49.6425,220.413 z"
     id="Lake Tanganyika"
     style="fill:#cccccc;fill-opacity:1;fill-rule:evenodd;stroke:#000000;stroke-opacity:0.90980392" /><path
     d="m 4282.2071,5566.1391 c 23.8283,67.514 1.9855,63.542 -25.8141,117.156 -9.9285,21.843 -29.7855,97.299 -35.7427,121.128 l -13.8998,73.471 -57.5855,178.713 -3.9713,142.97 c -180.6988,121.128 -220.4128,311.756 -270.0555,488.483 -103.2564,19.857 -150.9132,279.984 -258.1409,87.371 -31.7714,67.514 -97.2995,57.585 -152.8992,51.628 l -9.9285,-5.957 c 15.8857,-29.786 -33.7567,-51.628 -51.6281,-67.514 l -119.1421,89.357 -5.957,1.985 c -25.8142,-57.585 -57.5855,-115.17 -97.2993,-170.77 l 5.957,0 c 184.6701,-5.957 -25.8142,-156.871 67.5138,-222.399 109.2136,55.6 131.0563,-156.87 206.5129,0 73.471,-11.914 115.1706,37.729 168.7846,-21.842 5.9572,-79.428 99.2849,-220.413 -19.857,-281.97 -81.4138,-65.528 -7.9428,-133.042 45.6712,-190.627 -31.7714,-83.4 -87.3708,-65.528 -148.9276,-43.686 -73.471,-39.714 -29.7855,-75.456 -35.7427,-125.099 150.9133,-43.685 303.8121,55.6 442.8113,21.843 l 11.9143,-75.457 c 61.5566,-23.828 39.714,-103.256 73.4708,-146.942 93.328,-51.628 194.5988,-11.914 283.9554,-21.843 z"
     id="Republic of Congo"
     style="fill:#cccccc;fill-rule:evenodd;stroke:#000000;stroke-width:13.99999809;stroke-linejoin:round;stroke-opacity:0.90980392" /><path
     d="m 3813.5816,4976.3861 3.9713,-7.943 c -1.9854,1.985 -1.9854,5.957 -3.9713,7.943 l -53.614,89.356 -45.6711,35.743 -9.9285,43.685 -37.7282,59.571 c 1.9854,27.8 5.9571,57.585 11.9141,89.357 3.9714,25.814 9.9286,51.628 17.8712,77.442 7.9429,27.8 3.9713,79.428 15.8857,109.214 15.8855,37.728 57.5853,27.799 81.4138,63.542 15.8857,23.829 33.7568,41.7 53.6138,63.543 17.8713,19.856 29.7855,67.513 49.6427,85.385 l 27.7998,41.699 c 61.5566,-23.828 39.714,-103.256 73.4708,-146.941 93.328,-51.629 194.5988,-11.915 283.9554,-21.843 39.714,-61.557 13.8998,-196.585 146.9418,-204.528 101.2708,-37.728 138.9991,85.386 220.4129,95.314 99.2852,27.8 246.2269,45.671 323.6692,-47.657 123.1137,15.886 214.4558,-73.471 303.8125,-41.699 55.5996,-172.756 208.4985,41.699 285.9408,-37.729 25.8142,9.929 67.5138,15.886 67.5138,0 l -399.1258,-458.697 c -89.3567,-23.828 -168.7846,-101.27 -190.6275,-168.784 39.7142,-63.543 -61.5566,-164.813 -95.3134,-242.256 -168.7848,-99.285 -184.6703,186.656 -341.5407,212.47 -85.3852,111.199 -248.2126,17.871 -293.884,178.713 -166.7987,81.414 -347.4977,109.214 -496.4251,125.1 z"
     id="Central African Republic"
     style="fill:#cccccc;fill-rule:evenodd;stroke:#000000;stroke-width:13.99999809;stroke-linejoin:round;stroke-opacity:0.90980392" /><path
     d="m 5837.0112,9410.4561 c -33.7568,-41.699 -91.3421,-61.556 -146.9418,-75.456 -55.5997,-91.342 -117.1566,-254.17 -238.2844,-272.041 -75.4564,-87.371 -107.2278,-206.513 -168.7846,-272.041 -89.3564,-7.943 -158.8559,7.942 -222.3984,51.628 -87.371,21.843 -109.2136,31.771 -109.2136,31.771 -5.957,1.985 -13.9,1.985 -19.857,1.985 -25.8142,-1.985 -67.5138,-31.771 -93.328,-29.785 -109.2136,11.914 -188.6416,65.528 -188.6416,65.528 l 5.957,470.611 -131.0561,0 1.9855,458.697 9.9284,41.7 99.2852,138.9989 c 11.9142,35.743 -99.2852,81.415 -15.8857,109.214 105.2421,-17.871 248.2128,-73.471 287.9266,-190.6269 89.3566,-101.271 154.8848,13.899 244.2412,31.771 162.8276,51.6279 142.9707,-166.799 279.9839,-194.599 5.9572,-17.871 15.8857,-35.743 25.8142,-51.628 l 0,0 c 1.9854,-1.986 1.9854,-3.972 1.9854,-3.972 0,0 1.9855,-1.985 1.9855,-1.985 0,0 0,0 0,0 0,-1.985 1.9854,-1.985 1.9854,-1.985 0,-1.986 0,-1.986 1.9854,-1.986 0,0 0,0 0,-1.985 0,0 0,0 0,0 0,0 0,0 0,0 0,0 0,0 0,0 0,0 0,0 0,0 0,1.985 0,1.985 0,1.985 m 0,-1.985 c 0,0 0,0 0,0 0,0 0,0 0,0 z m 0,0 c 0,0 0,0 0,0 0,0 0,0 0,0 z m 0,0 c 0,0 0,0 0,0 0,0 0,0 0,0 z m 0,0 c 0,0 0,0 0,0 0,0 0,0 0,0 z m 0,0 c 0,0 0,0 0,0 0,0 0,0 0,0 z m 1.9855,-1.986 c 0,0 0,-1.985 0,-1.985 0,0 0,0 0,0 1.9854,0 1.9854,-1.986 1.9854,-1.986 0,0 1.9854,-1.985 1.9854,-1.985 0,0 0,0 0,0 0,0 0,-1.986 1.9855,-1.986 0,-1.985 1.9854,-1.985 1.9854,-3.971 0,0 0,0 0,0 0,0 0,0 0,0 1.9854,-1.985 1.9854,-1.985 3.9713,-3.971 0,0 0,-1.986 1.9854,-1.986 0,0 0,-1.985 0,-1.985 1.9855,-1.986 3.9713,-3.972 5.957,-7.943 0,0 0,0 0,0 3.9715,-3.971 7.9428,-7.943 11.9141,-11.914 0,0 0,0 0,0 1.9855,0 1.9855,-1.985 1.9855,-1.985 0,0 1.9854,-1.986 1.9854,-1.986 0,0 0,0 0,0 9.9285,-9.928 19.857,-19.857 31.7711,-29.785 0,0 0,0 0,0 l 0,0 c 71.4854,-61.557 160.8421,-109.214 228.3557,-154.885 l 73.471,-73.471 m -371.3261,303.812 c 0,1.986 0,1.986 0,1.986 0,0 0,0 0,-1.986 z m 0,0 c 0,0 0,0 0,0 0,0 0,0 0,0 0,1.986 0,1.986 0,1.986 0,0 0,0 0,-1.986 z m 0,0 c 0,0 0,0 0,0 0,0 0,0 0,0 z m 0,0 c 0,0 0,0 0,0 0,0 0,0 0,0 z m 0,0 c 0,0 0,0 0,0 0,0 0,0 0,0 z m 0,0 c 0,0 0,0 0,0 0,0 0,0 0,0 z m 0,0 c 0,0 0,0 0,0 0,0 0,0 0,0 z m 0,0 c 0,0 0,0 0,0 0,0 0,0 0,0 z m 0,0 c 0,0 0,0 0,0 0,0 0,0 0,0 z m 0,0 c 0,0 0,0 0,0 0,0 0,0 0,0 z m 0,0 c 0,0 0,0 0,0 0,0 0,0 0,0 z m 0,0 c 0,0 0,0 0,0 0,0 0,0 0,0 z m 0,0 c 0,0 0,0 0,0 0,0 0,0 0,0 z m 0,0 c 0,0 0,0 0,0 0,0 0,0 0,0 z m 0,0 c 0,0 0,0 0,0 0,0 0,0 0,0 z m 0,0 c 0,0 0,0 0,0 0,0 0,0 0,0 z m 0,0 c 0,0 0,0 0,0 0,0 0,0 0,0 z m 0,0 c 0,0 0,0 0,0 0,0 0,0 0,0 z m 0,0 c 0,0 0,0 0,0 0,0 0,0 0,0 z m 0,0 c 0,0 0,0 0,0 0,0 0,0 0,0 z m 0,-1.985 c 0,0 0,0 0,0 0,0 0,0 0,0 z m 0,0 c 0,0 0,0 0,0 0,0 0,0 0,0 z m 0,0 c 0,0 0,0 0,0 0,0 0,0 0,0 z m 0,0 c 0,0 0,0 0,0 0,0 0,0 0,0 z"
     id="Botswana"
     style="fill:#cccccc;fill-rule:evenodd;stroke:#000000;stroke-width:13.99999809;stroke-linejoin:round;stroke-opacity:0.90980392" /><path
     d="m 5283.0004,8790.9181 c -89.3564,-7.943 -158.8559,7.942 -222.3984,51.628 -87.371,21.843 -109.2136,31.771 -109.2136,31.771 -5.957,1.985 -13.9,1.985 -19.857,1.985 -25.8142,-1.985 -67.5138,-31.771 -93.328,-29.785 -109.2136,11.914 -188.6416,65.528 -188.6416,65.528 l 5.957,470.611 -131.0561,0 5.957,959.0939 -190.6273,95.314 c -61.5568,-25.814 -196.5844,0 -206.5129,-121.127 l -23.8285,-21.843 -81.4138,81.413 -1.9855,1.985 c -31.7711,-43.685 -71.4851,-83.399 -121.1275,-117.156 -81.4139,-254.17 -198.5704,-516.2829 -184.6703,-796.2659 -105.242,-260.127 -373.3118,-484.512 -413.0258,-754.567 l 172.7559,-51.628 c 176.7275,93.328 567.9106,35.743 754.5665,51.628 117.1563,125.099 311.7551,51.628 452.7396,103.257 69.4997,9.928 129.0709,-17.872 184.6706,-27.8 0,0 93.3279,-15.886 109.2134,-35.743 3.9713,-5.957 9.9285,-11.914 11.9143,-19.857 l 1.9855,0 c 83.3995,21.843 242.2554,-35.742 287.9265,61.557 z"
     id="Namibia"
     style="fill:#cccccc;fill-rule:evenodd;stroke:#000000;stroke-width:13.99999809;stroke-opacity:0.90980392" /><path
     d="m 6728.591,7817.9241 c 0,1.986 0,3.971 1.9854,3.971 3.9714,9.929 9.9285,17.872 15.8855,25.815 -3.9713,11.914 -7.9426,61.556 -9.9283,73.471 -23.8285,93.328 -35.7426,154.884 1.9855,236.298 75.4566,101.271 140.9847,214.456 95.3136,339.555 -89.3567,11.914 -49.6425,137.013 -133.042,101.271 -186.6559,-113.186 65.5282,-224.385 -83.3994,-323.67 -49.6427,59.571 -123.1137,-33.757 -174.7418,-61.556 l -154.8846,57.585 -109.2137,61.557 -140.9847,29.785 0,97.3 c 107.2277,111.199 361.3975,67.513 383.2403,270.055 l -35.7426,311.755 c 11.9141,144.956 -87.371,260.127 -164.8133,377.283 -137.0133,3.972 -81.4136,129.071 -81.4136,184.67 75.4566,123.114 73.4707,214.456 61.5566,359.413 l -25.814,9.928 45.671,152.8989 103.2567,23.828 1.9854,1.985 c 15.8857,-49.642 21.8428,-103.256 3.9715,-168.7849 -31.7713,-35.741 25.8142,-73.47 25.8142,-73.47 144.9561,-75.457 397.1402,-103.257 363.3832,-305.798 89.3566,-125.1 -43.6855,-236.299 -29.7855,-369.341 -49.6425,-23.828 -55.5995,-85.385 -31.7712,-123.113 236.2984,-164.813 391.1833,-436.854 673.1528,-456.711 127.0848,-115.171 262.1126,-238.284 242.2554,-369.341 7.9431,-61.557 -39.7138,-121.128 -29.7855,-162.827 7.9429,-154.885 15.8857,-260.127 3.9715,-418.983 -3.9715,-7.943 -7.9428,-17.872 -11.9143,-25.815 l -9.9285,13.9 c -200.5558,133.042 -303.8122,83.4 -508.3395,184.671 -75.4566,-55.6 -158.8561,-29.786 -226.3699,-37.729 -27.7998,-5.957 -47.6568,-15.885 -61.5569,-27.8 l 0,7.943 z"
     id="Mozambique"
     style="fill:#cccccc;fill-rule:evenodd;stroke:#000000;stroke-width:13.99999809;stroke-opacity:0.90980392" /><path
     d="m 3062.7255,5756.9981 c -26.9722,1.019 -54.3751,4.811 -83.4159,9.651 l -11.7195,-2.067 c -5.957,33.757 -14.0355,67.665 -19.9922,103.408 -3.9716,17.871 -5.6801,33.833 -9.6515,51.704 l 19.9923,0 221.9825,0 6.2045,-146.839 c -44.8024,-12.969 -83.9795,-17.347 -123.4002,-15.856 z m -574.2595,246.111 c -27.0928,9.516 -25.3542,54.984 -8.2724,68.249 0.9265,0.669 2.4364,1.595 3.4469,2.067 5.3387,2.249 12.0426,2.083 19.3027,-2.757 2.6064,-1.677 5.0277,-4.038 6.894,-6.205 0.7523,-0.918 2.1245,-2.462 2.7576,-3.447 1.4604,-2.391 2.6386,-5.602 3.4469,-8.272 3.5292,-12.543 0.2427,-27.821 -6.8941,-37.917 -1.1692,-1.595 -2.7787,-3.504 -4.1361,-4.825 -0.3066,-0.287 -1.0633,-1.108 -1.3787,-1.379 -0.4765,-0.395 -1.5729,-1.022 -2.0671,-1.379 -2.0075,-1.374 -4.6389,-2.766 -6.8939,-3.447 -0.9486,-0.258 -2.4641,-0.571 -3.4469,-0.688 -0.5934,-0.04 -1.4626,0 -2.0671,0 -0.2956,0.09 -0.4015,-0.11 -0.6904,0 z"
     id="Equatorial Guinea"
     style="fill:#cccccc;fill-rule:evenodd;stroke:#000000;stroke-width:14.00791073;stroke-linejoin:round;stroke-miterlimit:4;stroke-opacity:0.90980392;stroke-dasharray:none" /><path
     d="m 8759.9637,8062.1651 c -77.4425,75.457 -131.0567,160.842 -146.9422,238.284 -125.0991,121.128 -276.0123,188.642 -438.8398,226.37 0,0 -81.4138,69.5 -81.4138,115.171 0,45.671 15.8857,103.257 -5.9572,127.085 -23.8285,21.843 -69.4994,73.471 -49.6424,85.385 69.4994,192.613 -17.8714,373.312 -137.0135,520.254 -19.8568,47.657 -37.7281,93.328 -53.6138,142.97 59.571,117.157 -11.9144,355.441 174.7416,426.926 109.2136,77.4419 216.4414,-61.557 321.6837,-89.356 41.6999,-55.6 63.5427,-129.071 83.3997,-178.714 23.8279,-71.485 77.4419,-144.956 103.2565,-220.413 11.9137,-31.771 45.6707,-67.513 57.5844,-99.284 39.7144,-105.243 59.5714,-210.485 103.2574,-317.713 31.7711,-81.413 45.6707,-162.827 81.4134,-242.255 9.9291,-23.829 39.7141,-47.657 49.6422,-69.5 -23.8276,-93.328 101.2717,-172.756 57.5857,-274.027 31.771,-51.628 81.4132,73.471 111.1996,-29.785 -77.4428,-160.842 0,-295.87 -95.3141,-456.711 -19.8572,-47.657 -83.3993,-51.629 -83.3993,-51.629 -47.6563,33.757 -19.8569,101.271 -51.6281,146.942 z"
     id="Madagascar"
     style="fill:#cccccc;fill-rule:evenodd;stroke:#000000;stroke-width:13.99999809;stroke-linejoin:round;stroke-opacity:0.90980392" /><path
     d="m 9828.2704,6696.0031 0,0 9.9289,9.928 -9.9289,-9.928 z"
     id="path49"
     style="fill:#cccccc;stroke:#000000;stroke-width:7.99999809;stroke-linejoin:round;stroke-opacity:0.90980392" /><path
     d="m 6174.5806,9972.4101 -85.3854,11.914 c -83.3992,65.5289 -61.5566,129.0709 0,200.5559 51.6284,47.656 117.1565,-3.972 131.0563,-59.571 l -45.6709,-152.8989 z"
     id="Swaziland"
     style="fill:#cccccc;fill-rule:evenodd;stroke:#000000;stroke-width:13.99999809;stroke-linejoin:round;stroke-opacity:0.90980392" /><path
     d="m 5815.1685,10488.692 c -23.8283,119.142 -158.8562,107.228 -230.3413,184.671 -61.5568,-59.571 -101.2708,-168.785 -11.9144,-236.299 l 95.3136,-53.614 c 61.557,0 119.1423,49.643 146.9421,105.242 l 0,0 z"
     id="Lesotho"
     style="fill:#cccccc;fill-rule:evenodd;stroke:#000000;stroke-width:13.99999809;stroke-opacity:0.90980392" /><path
     d="m 6611.4347,7559.7831 c -13.9,23.828 -3.9715,45.671 11.9142,61.556 0,0 35.7427,113.186 33.757,144.957 l 0,7.943 c -11.9144,27.799 -25.8142,27.799 -35.7427,63.542 -3.9713,19.857 -5.9571,73.471 -13.9,93.328 3.9715,11.914 7.9429,25.814 11.9144,39.714 25.8139,73.471 63.5425,156.87 53.6138,240.27 29.7857,-5.957 69.4996,27.8 81.414,-21.843 0,0 0,0 0,0 l 7.9426,0 c 65.5282,93.328 113.185,194.599 71.4854,307.784 -89.3567,11.914 -49.6425,137.013 -133.042,101.271 -186.6559,-113.186 65.5282,-224.385 -83.3995,-323.67 -49.6427,59.571 -123.1136,-33.757 -174.7418,-61.556 -71.4853,-150.914 67.5138,-218.428 73.471,-321.684 27.7998,-73.471 -61.5566,-138.999 43.6855,-206.513 l -39.7142,-55.6 1.9855,-63.542 c 9.9285,5.957 53.6137,1.985 85.3849,-5.957 l 3.9715,0 z"
     id="Malawi"
     style="fill:#cccccc;fill-rule:evenodd;stroke:#000000;stroke-width:13.99999809;stroke-opacity:0.90980392" /><path
     d="m 6037.5671,8459.3061 c -67.5138,-5.958 -138.9991,15.885 -178.7131,27.799 -27.7998,101.271 -111.1993,105.242 -184.6704,140.985 l -133.0419,162.828 -258.1413,0 c 61.5568,65.528 93.3282,184.67 168.7846,272.041 121.1278,17.871 182.6847,180.699 238.2844,272.041 55.5997,13.9 113.185,33.757 146.9418,75.456 95.3138,33.757 214.4557,35.743 295.8695,57.586 l 0,0 c 9.9285,-27.8 33.7568,-47.657 87.3708,-49.643 77.4423,-117.156 176.7275,-232.327 164.8133,-377.283 l 35.7427,-311.755 c -21.8429,-202.542 -276.0126,-158.856 -383.2404,-270.055 z"
     id="Zimbabwe"
     style="fill:#cccccc;fill-rule:evenodd;stroke:#000000;stroke-width:13.99999809;stroke-linejoin:round;stroke-opacity:0.90980392" /><path
     d="m 6516.1211,7891.3951 c -3.9713,65.528 -61.5566,119.142 -85.3851,186.656 0,0 0,0 0,0 0,1.985 0,1.985 0,3.971 0,0 0,0 0,0 0,0 0,1.986 0,1.986 -3.9715,9.928 -5.9572,19.857 -7.9429,29.785 0,0 0,0 0,1.986 0,1.985 0,5.957 0,9.928 0,0 0,0 0,0 0,3.971 0,7.943 0,9.929 0,0 0,1.985 0,1.985 0,1.986 0,3.972 0,3.972 0,1.985 0,1.985 0,1.985 0,3.972 0,5.957 1.9855,9.929 0,1.985 0,1.985 0,1.985 0,1.985 0,1.985 0,3.972 0,1.985 0,1.985 0,1.985 0,1.985 1.9854,1.985 1.9854,3.971 0,1.986 0,1.986 0,3.972 0,0 0,1.985 0,1.985 1.9855,1.986 1.9855,1.986 1.9855,3.972 0,0 0,0 0,0 0,1.985 0,3.971 0,3.971 0,0 0,0 0,0 1.9854,1.985 1.9854,3.972 1.9854,3.972 0,0 0,0 0,1.985 0,0 1.9854,1.985 1.9854,1.985 0,0 0,0 0,0 0,1.986 0,3.972 0,3.972 0,0 0,0 0,1.985 1.9855,0 1.9855,0 1.9855,1.986 0,0 0,1.985 1.9854,3.971 0,0 0,0 0,1.985 0,1.986 1.9854,3.972 1.9854,5.958 0,0 0,0 0,0 1.9855,1.985 1.9855,3.971 3.9713,5.957 l -55.5996,19.857 0,0 -99.285,37.728 -109.2136,61.557 -140.9848,29.785 0,97.3 c -67.5138,-5.958 -138.9991,15.885 -178.7131,27.799 -27.7998,101.271 -111.1993,105.243 -184.6704,140.985 l -133.0419,162.828 -125.0993,0 -133.042,0 c -45.6712,-97.3 -204.527,-39.714 -287.9265,-61.557 l -1.9855,0 c 5.957,-11.914 3.9714,-25.814 -19.8572,-41.7 l -162.8274,-162.827 9.9285,-458.697 c 79.4282,-29.786 202.5416,-27.8 258.1413,-27.8 l 29.7855,-53.614 -13.9001,-77.442 -17.8713,-53.614 31.7714,-61.557 7.9428,-13.9 c 13.8998,5.957 51.6281,19.857 75.4566,17.871 23.8283,-1.985 53.614,3.972 91.3421,0 43.6855,89.357 150.9133,113.185 238.2843,111.2 l 57.5853,-31.772 c 105.2422,85.386 224.3844,140.985 301.8267,242.256 85.3851,37.728 97.2993,-81.414 89.3566,-125.099 -15.8856,-93.328 -61.5568,15.885 -111.1993,-37.729 -156.8704,-85.385 1.9855,-361.397 -59.5712,-478.554 39.7142,-168.784 208.4989,-113.184 305.7981,-135.027 15.8857,35.742 53.614,67.514 71.4851,35.742 l 0,-1.985 c 67.5141,41.7 137.0135,83.399 210.4845,121.128 l 0,0 c 43.6855,23.828 89.3564,47.657 135.0278,69.499 l -1.9854,63.543 39.7142,55.6 c -105.2421,67.513 -15.8857,133.041 -43.6855,206.512 z m -73.471,321.684 c 1.9855,1.985 3.9713,1.985 3.9713,3.971 0,-1.986 -1.9854,-1.986 -3.9713,-3.971 z m 3.9713,3.971 c 1.9855,0 1.9855,0 3.9716,1.985 m 11.9141,5.958 c 1.9855,1.985 1.9855,3.971 3.9713,3.971 -1.9854,0 -1.9854,-1.986 -3.9713,-3.971 z"
     id="Zambia"
     style="fill:#cccccc;fill-rule:evenodd;stroke:#000000;stroke-width:13.99999809;stroke-opacity:0.90980392" /><path
     d="m 5938.282,6729.7601 c -9.9285,-67.514 -51.6282,-138.999 -49.6425,-218.427 39.714,-9.929 59.571,49.642 91.3423,37.728 9.9285,-3.971 15.8855,-43.685 31.7711,-61.557 l 67.5138,-7.943 c 111.1993,93.328 -33.757,202.542 -95.3136,268.07 l -31.7711,3.971 -13.9,1.986 0,-23.828 z"
     id="Burundi"
     style="fill:#cccccc;fill-opacity:1;fill-rule:evenodd;stroke:#000000;stroke-width:13.99999809;stroke-linejoin:round;stroke-opacity:0.90980392" /><path
     d="m 7457.3434,7045.4861 c -49.6424,-17.871 -49.6424,-67.514 -15.8854,-99.285 23.8283,33.757 43.6853,71.485 15.8854,99.285 z m -1505.1614,-293.884 31.7711,-3.971 c 61.5566,-65.528 206.5129,-174.742 95.3136,-268.07 154.8849,-51.628 -83.3994,-190.627 59.5712,-242.255 l 160.8418,-5.957 c 1.9854,51.628 11.9141,101.27 -17.8713,154.884 -3.9716,79.428 35.7426,89.357 81.4138,81.414 0,0 0,0 1.9854,0 19.857,-1.985 41.6997,-9.928 61.5566,-15.885 0,0 0,0 0,0 0,0 0,0 0,0 3.9716,0 5.9572,-1.986 7.9429,-1.986 0,0 0,0 0,0 5.9572,-1.985 9.9285,-3.971 15.8857,-3.971 0,0 0,0 0,0 0,0 0,0 0,-1.986 1.9854,0 1.9854,0 1.9854,0 1.9854,0 1.9854,0 3.9715,0 0,0 0,0 0,0 1.9855,0 1.9855,0 3.9713,-1.985 0,0 0,0 0,0 0,0 0,0 1.9855,0 0,0 0,0 0,0 0,0 0,0 0,0 1.9854,0 1.9854,0 1.9854,0 0,0 1.9854,0 1.9854,0 0,0 0,0 0,0 0,0 1.9855,0 1.9855,0 0,-1.985 0,-1.985 0,-1.985 1.9854,0 1.9854,0 1.9854,0 0,0 0,0 0,0 1.9854,0 1.9854,0 1.9854,0 0,0 0,0 0,0 1.9855,0 1.9855,0 1.9855,0 0,0 0,0 0,0 1.9854,0 1.9854,0 1.9854,0 0,0 0,0 0,0 1.9854,0 1.9854,0 1.9854,0 0,0 0,0 0,0 1.9855,0 1.9855,0 1.9855,0 37.7283,29.785 89.3566,23.828 97.2992,-21.843 -3.9713,-1.986 -5.9569,-1.986 -7.9426,-1.986 0,0 0,0 0,0 0,0 0,0 0,0 -1.9854,-1.985 -3.9715,-1.985 -5.9572,-1.985 0,0 0,-1.985 0,-1.985 0,0 0,0 0,0 -1.9854,0 -1.9854,0 -3.9713,0 0,-1.986 -1.9854,-1.986 -1.9854,-1.986 -1.9854,0 -1.9854,0 -3.9713,-1.985 0,0 0,0 0,0 -1.9854,0 -3.9715,-1.986 -3.9715,-1.986 0,0 0,0 -1.9855,0 -1.9854,-1.985 -3.9713,-3.971 -5.9569,-3.971 0,0 0,0 0,0 0,0 0,0 0,0 -1.9855,-1.986 -3.9716,-3.972 -5.9572,-3.972 0,0 0,-1.985 0,-1.985 -1.9855,0 -3.9713,-1.985 -3.9713,-3.972 0,0 -1.9855,0 -1.9855,0 0,-1.985 -1.9854,-1.985 -1.9854,-3.971 0,0 0,0 0,0 0,-1.985 -1.9854,-3.971 -1.9854,-3.971 0,0 0,0 0,0 0,-1.986 0,-3.972 0,-3.972 0,-1.985 0,-1.985 0,-1.985 0,0 0,0 0,-1.986 0,0 0,0 0,0 0,0 0,0 0,-1.985 0,0 1.9854,0 1.9854,0 0,-1.985 1.9854,-5.957 3.9715,-7.943 0,0 0,0 0,0 0,-1.985 1.9855,-1.985 1.9855,-3.971 0,0 0,0 0,0 0,0 0,0 1.9854,-1.986 0,0 0,0 0,0 0,0 0,0 0,0 0,0 1.9854,-1.985 1.9854,-1.985 0,0 0,0 0,0 0,0 0,0 0,0 0,0 1.9855,-1.986 1.9855,-1.986 0,0 0,0 0,0 0,0 1.9854,0 1.9854,-1.985 0,0 0,0 0,0 0,0 1.9854,0 1.9854,0 0,-1.986 0,-1.986 0,-1.986 1.9855,-1.985 3.9713,-1.985 5.957,-3.971 0,0 0,0 0,-1.985 0,0 0,0 0,0 1.9854,0 1.9854,0 1.9854,0 0,0 1.9855,-1.986 1.9855,-1.986 0,0 1.9854,0 1.9854,-1.985 0,0 1.9854,0 1.9854,0 0,0 0,-1.986 1.9855,-1.986 0,0 0,0 1.9854,-1.985 0,0 0,0 0,0 0,0 0,0 1.9854,0 33.7568,-25.814 79.428,-55.6 83.3995,-93.328 l 524.2252,285.941 c -9.9285,35.743 1.9854,65.528 21.8426,91.342 l 216.4414,166.799 0,0 c -3.9715,3.971 -5.9571,9.929 -7.9428,13.9 0,0 0,0 0,0 0,0 0,0 0,0 0,0 0,0 0,0 -1.9854,3.971 -3.9713,7.943 -5.957,11.914 0,0 -1.9854,1.986 -1.9854,1.986 0,0 0,0 0,0 0,0 0,0 0,0 0,1.985 -1.9854,3.971 -1.9854,3.971 0,0 0,0 0,1.986 0,0 0,0 -1.9855,0 0,1.985 -1.9854,5.957 -1.9854,7.942 0,0 0,0 0,0 0,0 0,0 0,0 0,0 -1.9854,1.986 -1.9854,1.986 0,0 0,0 0,1.985 0,0 0,0 0,0 0,0 0,0 0,0 -1.9855,1.986 -1.9855,1.986 -1.9855,1.986 0,1.985 0,1.985 0,1.985 0,0 0,1.986 -1.9854,1.986 0,0 0,0 0,0 0,0 0,1.985 0,1.985 0,0 0,0 0,0 0,1.985 0,1.985 -1.9854,1.985 0,3.972 -1.9855,5.957 -3.9716,9.929 0,0 0,0 0,0 0,0 0,1.985 0,1.985 0,1.986 0,1.986 -1.9854,1.986 0,3.971 -1.9854,5.957 -1.9854,7.943 0,0 0,1.985 0,1.985 0,0 0,0 0,0 0,0 -1.9855,1.985 -1.9855,1.985 0,0 0,0 0,0 0,0 0,1.986 0,3.972 0,0 -1.9854,0 -1.9854,0 0,1.985 0,1.985 0,1.985 0,0 0,0 0,1.986 0,0 0,0 0,0 0,0 0,1.985 -1.9854,1.985 0,0 0,1.986 0,1.986 0,0 0,1.985 0,1.985 0,1.986 -1.9855,3.971 -1.9855,3.971 0,1.986 0,1.986 0,1.986 -1.9854,3.971 -1.9854,5.957 -1.9854,9.928 l 0,0 c -17.8713,61.557 -11.9142,125.099 33.757,192.613 0,0 15.8857,47.657 11.9142,77.443 -5.9572,55.599 17.8713,111.199 1.9854,170.77 45.6711,97.299 -7.9429,214.456 95.3136,293.884 0,0 15.8857,17.871 29.7855,41.699 0,0 0,0 0,0 l -9.9285,13.9 c -200.5557,133.042 -303.8122,83.4 -508.3395,184.671 -27.7998,-19.857 -57.5853,-29.786 -87.3708,-33.757 l 0,0 c -47.6568,-7.943 -97.2992,0 -138.9991,-3.972 -27.7998,-5.957 -47.6568,-15.885 -61.5568,-27.8 l 0,7.943 c 0,0 0,1.986 0,1.986 -7.9427,-17.871 -15.8855,-55.6 -27.7996,-73.471 l 0,0 c 0,0 0,0 0,0 0,0 0,0 0,0 0,0 0,0 0,0 0,0 0,0 0,0 -1.9855,-3.972 -1.9855,-3.972 -3.9716,-5.957 -1.9854,-1.986 -3.9713,-5.957 -5.9572,-7.943 0,0 0,-1.986 0,-1.986 0,0 0,0 0,0 -21.8426,-33.756 -27.7996,-111.199 -27.7996,-111.199 5.957,-17.871 11.914,-39.714 3.9714,-53.614 -1.9855,-1.985 -1.9855,-1.985 -1.9855,-1.985 l 0,0 c -5.9572,-9.929 -19.8572,-17.872 -45.6711,-17.872 -3.9716,3.972 -7.9429,7.943 -9.9285,13.9 l -1.9855,0 c 0,0 0,0 0,0 0,0 0,0 -1.9854,0 0,0 0,0 0,0 0,0 0,0 0,0 0,0 0,0 0,0 0,0 0,0 -1.9854,0 0,0 0,0 0,0 0,0 0,0 0,0 0,0 -1.9855,0 -1.9855,1.986 0,0 -1.9854,0 -1.9854,0 0,0 0,0 0,0 0,0 0,0 0,0 0,0 0,0 0,0 0,0 -1.9854,0 -1.9854,0 0,0 0,0 0,0 -31.7712,7.943 -67.5138,9.928 -75.4565,3.971 -123.1136,-59.571 -240.2699,-125.099 -347.4977,-190.627 -25.8141,-35.743 -41.6998,-75.457 -53.614,-115.171 l 85.3852,-3.971 -105.2422,-81.414 c -15.8856,-67.514 -37.7283,-133.042 -99.2851,-182.685 15.8855,-73.47 -13.9,-144.956 -49.6425,-220.412 -3.9715,-7.943 -7.9428,-11.914 -11.9143,-17.872 l 11.9143,-1.985 z m 597.6959,-405.083 c 1.9854,0 1.9854,0 1.9854,0 m 1.9855,-1.985 c 0,0 1.9854,0 1.9854,-1.985 m 1.9854,0 c 0,0 0,-1.986 1.9855,-1.986 m 47.6566,1219.221 c 0,0 0,0 0,0 m 15.8856,61.556 c -3.9713,-5.957 -9.9284,-9.928 -11.9141,-15.885 1.9854,5.957 5.9572,9.928 11.9141,15.885 0,0 0,0 0,0 z"
     id="Tanzania"
     style="fill:#cccccc;fill-rule:evenodd;stroke:#000000;stroke-width:13.99999809;stroke-linejoin:round;stroke-opacity:0.90980392" /><path
     d="m 5970.0533,6294.8911 109.2134,-11.914 11.9144,0 c -7.9428,65.528 107.2278,156.87 -11.9144,196.584 l -67.5138,7.943 c -15.8856,17.872 -21.8426,57.586 -31.7711,61.557 -31.7713,11.914 -51.6283,-47.657 -91.3423,-37.728 -11.9142,-65.529 0,-144.957 81.4138,-216.442 z m 115.1706,188.642 c 0,0 0,0 0,0 0,0 0,0 0,0 z"
     id="Rwanda"
     style="fill:#cccccc;fill-opacity:1;fill-rule:evenodd;stroke:#000000;stroke-width:13.99999809;stroke-linejoin:round;stroke-opacity:0.90980392" /><path
     d="m 6105.0809,7341.3561 c -97.2993,21.842 -266.0839,-33.757 -305.7981,135.027 61.5569,117.157 -97.2992,393.169 59.5712,478.554 49.6425,53.614 95.3136,-55.599 111.1993,37.729 7.9426,43.685 -3.9715,162.827 -89.3566,125.099 -77.4423,-101.271 -196.5845,-156.87 -301.8267,-242.256 l -57.5853,31.772 c -87.371,1.985 -194.5988,-21.843 -238.2843,-111.2 -37.7281,3.972 -67.5138,-1.985 -91.3421,0 -31.7713,3.972 -81.4138,-19.857 -81.4138,-19.857 l -31.7711,-33.757 -222.3986,21.843 c 11.9143,-85.385 -23.8286,-170.77 -73.471,-252.184 l -15.8855,-315.727 c -95.3138,-39.714 -135.0278,27.8 -214.456,-43.685 l -101.2706,21.843 c -15.8856,252.184 -210.4844,71.485 -317.7122,127.085 l -25.8142,-53.614 -49.6424,-49.643 -17.8714,-81.414 -51.6281,-55.599 -47.6568,-61.557 -532.1679,-15.885 -43.6855,21.842 -15.8857,13.9 c -7.9428,-21.843 -17.8713,-43.685 -25.8141,-67.514 l 41.6998,-13.9 c -17.8713,-218.427 184.6701,-21.842 252.1841,-162.827 107.2277,192.613 154.8845,-67.514 258.1409,-87.371 5.9572,-19.857 11.9144,-39.714 17.8714,-59.571 l 0,0 c 0,-1.985 0,-1.985 0,-3.972 0,0 0,-1.985 0,-1.985 1.9854,-1.985 1.9854,-1.985 1.9854,-3.971 0,-3.972 1.9854,-7.943 1.9854,-11.914 1.9855,0 1.9855,0 1.9855,-1.986 0,0 0,0 0,0 0,0 0,-1.985 0,-1.985 0,0 0,-1.986 0,-1.986 1.9854,-1.985 1.9854,-3.971 1.9854,-5.957 0,-1.985 0,-1.985 1.9854,-1.985 0,-1.986 0,-1.986 0,-1.986 0,0 0,0 0,0 0,-1.985 0,-1.985 0,-3.971 0,0 0,0 1.9855,-1.986 0,0 0,0 0,0 0,-1.985 0,-5.956 1.9854,-7.942 0,0 0,0 0,0 0,-3.972 1.9854,-7.943 3.9713,-11.915 0,-1.985 0,-1.985 0,-3.971 0,0 0,0 0,0 0,-1.985 0,-1.985 1.9854,-1.985 0,0 0,-1.986 0,-1.986 0,0 0,0 0,-1.985 0,0 0,0 0,-1.986 0,0 0,0 0,0 0,0 0,0 0,0 0,0 1.9855,-1.985 1.9855,-1.985 l 0,0 c 39.714,-133.042 95.3134,-262.113 230.3412,-351.469 l 3.9713,-142.97 57.5855,-178.714 13.8998,-73.471 c 5.9572,-23.828 25.8142,-99.285 35.7427,-121.127 27.7998,-53.614 49.6425,-49.643 25.8142,-117.157 39.714,-61.556 13.8998,-196.584 146.9417,-204.527 101.2708,-37.728 138.9992,85.385 220.413,95.314 99.2851,27.8 246.2269,45.671 323.6692,-47.657 123.1136,15.885 214.4557,-73.471 303.8124,-41.7 55.5997,-172.756 208.4986,41.7 285.9409,-37.728 15.8857,5.957 41.6998,11.914 55.5996,9.928 l 77.4426,57.586 73.4708,43.685 c 73.471,-55.6 129.0706,43.686 192.6131,-37.728 l 170.7703,133.042 c 53.614,55.599 -21.8426,129.07 -7.9426,184.67 13.8998,19.857 51.6279,21.843 71.4849,33.757 l -105.2419,135.028 c -97.2995,113.185 -131.0563,260.127 -121.1278,405.083 -81.4139,71.485 -93.328,150.913 -81.4139,216.441 0,45.671 13.9001,89.356 25.8142,131.056 l 0,0 c 9.9285,29.786 19.857,59.571 23.8283,87.371 l 0,19.857 c -1.9854,-3.971 -3.9713,-7.943 -5.9569,-13.9 -9.9285,13.9 -25.8142,-9.928 -31.7714,5.957 -1.9854,9.929 3.9715,47.657 1.9854,59.571 -11.9143,101.271 39.714,224.385 61.5566,323.67 25.8142,25.814 57.5854,57.585 85.3852,85.385 21.8426,-9.929 47.6568,109.213 47.6568,109.213 1.9854,5.958 3.9715,13.9 7.9428,21.843 z m -2212.0713,-712.867 c 0,-1.985 0,-1.985 0,-3.972 m -63.5425,-1036.535 c -1.9855,-1.986 -1.9855,-3.972 -3.9713,-3.972 1.9854,0 1.9854,1.985 3.9713,3.972 z m -3.9713,-3.972 c 0,-1.985 -1.9855,-1.985 -1.9855,-1.985 0,0 1.9855,0 1.9855,1.985 z"
     id="Democratic Republic of Congo"
     style="fill:#cccccc;fill-rule:evenodd;stroke:#000000;stroke-width:13.99999809;stroke-linejoin:round;stroke-opacity:0.90980392" /><path
     d="m 5110.2445,7790.1241 -1.9854,1.985 -31.7714,61.557 17.8713,53.614 13.9001,77.443 -29.7855,53.613 c -1.9855,0 -1.9855,0 -1.9855,0 0,0 0,0 -1.9854,0 0,0 0,0 0,0 0,0 0,0 0,0 0,0 0,0 0,0 0,0 0,0 0,0 0,0 -1.9854,0 -1.9854,0 0,0 0,0 -1.9855,0 0,0 0,0 0,0 0,0 0,0 0,0 -1.9854,0 -1.9854,0 -1.9854,0 -1.9854,0 -1.9854,0 -3.9713,0 0,0 0,0 0,0 0,0 0,0 0,0 0,0 0,0 -1.9854,0 0,0 0,0 0,0 0,0 0,0 0,0 0,0 -1.9855,0 -1.9855,0 0,0 0,0 0,0 -1.9854,0 -1.9854,0 -1.9854,0 0,0 0,0 0,0 0,0 0,0 0,0 -7.9426,0 -15.8855,0 -23.8283,0 -61.5568,0 -152.8989,3.972 -214.4558,27.8 l -9.9285,458.697 162.8275,162.828 c 23.8285,15.885 25.8141,29.785 19.8572,41.699 -1.9855,7.943 -7.9431,13.9 -11.9144,19.857 -15.8854,19.857 -109.2134,35.743 -109.2134,35.743 -55.5997,9.929 -115.1709,37.728 -184.6705,27.8 -140.9846,-51.628 -335.5834,21.843 -452.7396,-103.257 -186.656,-15.885 -577.8391,41.7 -754.5665,-51.628 l -172.756,51.628 0,0 c -5.9571,-45.671 -5.9571,-91.342 1.9855,-138.999 -5.9572,-135.027 113.1849,-242.255 79.4281,-391.183 27.7996,-81.414 91.3421,-154.885 138.999,-234.313 0,-1.985 0,-1.985 0,-3.971 0,0 1.9854,0 1.9854,-1.985 0,0 0,0 0,0 0,0 0,0 1.9854,-1.986 0,0 0,-1.985 0,-1.985 0,0 0,0 0,0 1.9855,0 1.9855,-1.986 1.9855,-1.986 0,0 0,-1.985 0,-1.985 1.9854,0 1.9854,-1.985 1.9854,-1.985 0,0 0,0 0,0 0,-1.986 1.9854,-1.986 1.9854,-1.986 0,-1.985 0,-1.985 0,-1.985 0,-1.986 1.9855,-1.986 1.9855,-1.986 0,0 0,0 0,-1.985 0,0 0,0 1.9854,-1.986 0,0 0,0 0,-1.985 0,0 0,0 0,0 0,0 0,0 0,0 1.9854,-1.986 1.9854,-3.971 3.9713,-5.957 0,0 0,0 0,0 0,0 0,0 0,0 0,0 0,0 0,0 1.9854,-3.972 3.9713,-7.943 5.9572,-11.914 0,0 0,0 0,0 7.9428,-17.872 15.8857,-35.743 21.8426,-55.6 0,0 0,0 0,0 1.9855,-5.957 3.9716,-11.914 5.957,-19.857 0,0 0,0 0,0 0,0 0,0 0,0 0,0 0,0 0,0 1.9854,-5.957 1.9854,-11.914 3.9715,-19.857 11.9142,-123.114 -101.2708,-192.613 -105.2421,-309.769 5.9572,-79.428 31.7714,-144.957 0,-222.399 -1.9854,-1.985 -3.9715,-5.957 -7.9428,-9.929 0,0 0,0 0,0 0,0 0,0 0,0 0,0 0,0 0,-1.985 -1.9855,-1.985 -3.9713,-5.957 -5.9572,-7.943 -1.9855,-1.985 -1.9855,-1.985 -1.9855,-3.971 -1.9854,-1.986 -3.9715,-5.957 -5.9571,-7.943 0,0 -1.9855,-1.985 -1.9855,-1.985 -1.9854,-3.972 -3.9713,-5.958 -5.9569,-9.929 0,0 0,-1.986 -1.9855,-1.986 -1.9854,-3.971 -3.9713,-5.957 -5.9569,-9.928 0,0 0,0 0,0 -1.9855,-3.972 -3.9713,-7.943 -5.9572,-11.914 0,0 0,0 0,0 0,-1.986 0,-1.986 -1.9855,-1.986 0,-3.971 -1.9854,-5.957 -3.9713,-9.928 0,0 0,0 0,0 -1.9854,0 -1.9854,-1.986 -1.9854,-1.986 -1.9854,-3.971 -3.9715,-5.957 -5.9572,-9.928 0,0 0,0 0,0 0,0 0,-1.986 0,-1.986 -3.9715,-7.943 -7.9428,-15.885 -11.9141,-23.828 0,0 0,0 0,0 -1.9855,-3.972 -3.9716,-7.943 -5.9572,-11.914 0,0 0,0 0,0 -19.857,-39.715 -35.7427,-81.414 -53.614,-123.114 l 15.8857,-13.9 43.6855,-21.842 532.1679,15.885 47.6568,61.557 51.6281,55.599 17.8713,81.414 49.6425,49.643 25.8142,53.614 c 107.2277,-55.6 301.8265,125.099 317.7122,-127.085 l 101.2706,-21.843 c 79.4282,71.485 119.1421,3.971 214.456,43.685 l 15.8854,315.727 c 49.6425,81.414 85.3854,166.799 73.471,252.184 l 222.3986,-21.843 31.7712,33.757 0,13.9 z m -1656.0749,-969.022 c 15.8857,-29.786 -33.7567,-51.628 -51.6281,-67.514 l -119.1421,89.357 -5.957,1.985 c 15.8855,35.743 31.7711,71.485 45.671,107.228 l 41.6998,-13.9 c -9.9285,-113.185 39.714,-115.171 99.2849,-111.199 l -9.9285,-5.957 z"
     id="Angola"
     style="fill:#cccccc;fill-rule:evenodd;stroke:#000000;stroke-width:13.99999809;stroke-opacity:0.90980392" /><path
     d="m 3470.0553,5788.5371 c -93.328,-9.928 -234.3127,-83.399 -283.9552,-15.885 l -5.957,146.942 -222.3986,0 -19.8572,0 c -11.9141,67.513 -25.8139,137.013 -43.6853,202.541 -160.8417,121.128 55.5995,240.27 97.2993,375.298 81.4138,51.628 140.9848,111.199 188.6418,176.727 l 5.957,0 c 184.6701,-5.957 -25.8142,-156.87 67.5138,-222.398 109.2136,55.599 131.0563,-156.871 206.5129,0 73.471,-11.915 115.1706,37.728 168.7846,-21.843 5.9572,-79.428 99.2849,-220.413 -19.857,-281.97 -81.4138,-65.528 -7.9428,-133.042 45.6712,-190.627 -31.7714,-83.4 -87.3708,-65.528 -148.9276,-43.686 -73.471,-39.714 -29.7855,-75.456 -35.7427,-125.099 z m -285.9409,891.58 c 0,0 -1.9854,-1.985 -1.9854,-3.971 0,1.985 1.9854,3.971 1.9854,3.971 z"
     id="Gabon"
     style="fill:#cccccc;fill-rule:evenodd;stroke:#000000;stroke-width:13.99999809;stroke-linejoin:round;stroke-opacity:0.90980392" /><path
     d="m 7784.9842,4156.2911 c -29.7855,57.585 -91.3421,113.185 -67.5138,184.67 19.857,39.714 71.4853,53.614 95.3138,23.828 49.6425,-21.842 87.3706,37.729 59.5708,85.386 198.5703,311.755 397.1404,216.441 694.9958,333.597 l 57.5847,23.829 -389.1972,486.497 c -103.2564,-33.757 -244.2412,57.585 -355.4403,109.213 l -93.3282,67.514 c -53.614,-11.914 -105.2421,-5.957 -156.8702,-61.557 -148.9276,13.9 -198.5701,216.442 -347.4977,121.128 l -196.5845,-127.085 c -39.7142,-9.928 -91.3423,1.986 -137.0134,-7.943 -1.9855,-5.957 -5.9572,-13.899 -9.9285,-19.857 -3.9713,1.986 -9.9285,3.972 -13.9001,7.943 l -7.9426,-3.971 0,-1.986 -25.8141,-15.885 c -21.8427,-101.271 -156.8705,-156.87 -168.7847,-268.07 -43.6855,-140.985 -365.369,-150.913 -206.5129,-285.941 23.8283,27.8 113.185,-31.771 95.3136,-67.513 31.7712,-133.043 -27.7998,-262.113 117.1563,-353.455 -17.8711,-73.471 33.757,-154.885 73.4712,-222.399 111.1991,-47.657 107.2278,-174.7417 119.1419,-276.0123 l 7.9429,1.9854 77.4423,-5.9572 c 19.857,-17.8713 41.6998,-27.7998 57.5853,-51.6281 23.8285,-27.8001 43.6855,-23.8285 75.4566,-25.8142 l 87.371,43.6855 51.6281,-15.8859 c 19.857,-5.9569 55.5997,-5.9569 61.5569,25.8144 l 164.8131,51.6281 55.5996,33.7571 c 19.8572,37.7281 55.5997,63.5424 75.4566,93.3279 15.8857,37.7283 57.5856,61.5563 93.328,81.4133 l 53.614,29.786 1.9854,5.957 z m -863.7801,-268.0698 c 0,0 0,0 1.9855,-1.9854 -1.9855,1.9854 -1.9855,1.9854 -1.9855,1.9854 z"
     id="Ethiopia"
     style="fill:#cccccc;fill-opacity:1;fill-rule:evenodd;stroke:#000000;stroke-width:13.99999809;stroke-linejoin:round;stroke-opacity:0.90980392" /><path
     d="m 6400.9505,9887.0251 0,0 c -5.9572,1.985 -11.9144,5.957 -19.857,7.943 7.9426,-1.986 13.8998,-5.958 19.857,-7.943 z m -232.3271,-228.356 c -1.9854,-1.985 -1.9854,-3.971 -1.9854,-5.957 0,0 0,0 0,0 0,0 -1.9855,0 -1.9855,0 0,-1.986 0,-1.986 0,-1.986 0,0 0,-1.985 0,-1.985 -1.9854,0 -1.9854,0 -1.9854,0 0,-1.985 0,-1.985 0,-1.985 0,0 0,-1.986 0,-1.986 -1.9854,0 -1.9854,0 -1.9854,-1.985 0,0 0,0 0,0 0,0 0,0 0,-1.986 -1.9855,0 -1.9855,0 -1.9855,-1.985 0,0 0,0 0,0 -5.9571,-11.914 -13.9,-23.829 -19.8569,-35.743 0,-33.757 -21.8429,-93.328 -5.9572,-135.028 l 0,0 c -81.4139,-21.842 -200.5558,-23.828 -295.8696,-57.585 l -73.471,73.471 c -67.5136,45.671 -156.8703,93.328 -228.3557,154.885 l 0,0 c 0,0 0,0 0,0 -11.9141,9.928 -21.8426,19.857 -31.7711,29.785 0,0 0,0 0,0 0,0 -1.9854,1.986 -1.9854,1.986 0,0 0,1.985 -1.9855,1.985 0,0 0,0 0,0 -3.9713,3.971 -7.9426,7.943 -11.9141,11.914 0,0 0,0 0,0 -1.9855,3.972 -3.9713,5.957 -5.957,7.943 0,0 0,1.985 0,1.985 -1.9854,0 -1.9854,1.986 -1.9854,1.986 -1.9855,1.985 -1.9855,1.985 -3.9713,3.971 0,0 0,0 0,0 0,0 0,0 0,0 0,1.986 -1.9855,1.986 -1.9855,3.972 -1.9854,0 -1.9854,1.985 -1.9854,1.985 0,0 0,0 0,0 0,0 -1.9854,1.986 -1.9854,1.986 0,0 0,1.985 -1.9855,1.985 0,0 0,0 0,0 0,0 0,1.985 0,1.985 -1.9854,1.986 -1.9854,1.986 -1.9854,3.972 -1.9854,0 -1.9854,0 -1.9854,1.985 0,0 -1.9855,0 -1.9855,1.986 0,0 0,0 0,0 0,0 -1.9854,1.985 -1.9854,1.985 0,0 0,1.986 -1.9854,3.972 l 0,0 c -9.9285,15.885 -19.857,33.757 -25.8142,51.628 -137.0133,27.8 -117.1563,246.2269 -279.9839,194.598 -89.3565,-17.871 -154.8846,-133.041 -244.2413,-31.77 -39.7137,117.1559 -182.6844,172.7559 -287.9265,190.6269 -83.3995,-27.799 27.7998,-73.471 15.8857,-109.214 l -99.2852,-138.9989 -9.9285,-41.7 3.9713,500.3969 -190.6272,95.314 c -61.5568,-25.814 -196.5844,0 -206.5129,-121.127 l -23.8286,-21.843 -81.4138,81.413 -1.9854,1.985 c 111.1995,148.928 154.8848,347.498 264.0982,504.368 17.8714,55.6 -61.5566,89.357 -37.7283,133.042 107.228,73.471 144.9563,287.927 311.7553,242.256 119.1419,-3.971 208.4986,-83.4 321.6835,-105.242 127.085,-1.985 363.3834,-7.942 494.4397,-63.543 335.5834,-51.627 563.9392,-418.983 790.3091,-673.153 45.6712,-97.299 121.1278,-172.756 154.8846,-264.098 l -1.9854,-1.985 -103.2567,-23.828 c -13.8998,55.599 -79.4279,107.227 -131.0563,59.571 -61.5566,-71.485 -83.3992,-135.027 0,-200.5559 l 85.3854,-11.914 25.8139,-9.928 c 9.9285,-121.129 13.9,-204.528 -29.7855,-301.827 -1.9854,0 -1.9854,0 -1.9854,-1.986 0,0 0,0 0,0 z m -700.9527,53.614 c -1.9854,1.985 -1.9854,1.985 -1.9854,3.971 m 702.9383,-57.585 c -1.9854,-1.985 -1.9854,-3.971 -1.9854,-5.957 m 208.4986,246.227 c 1.9854,0 1.9854,-1.986 3.9715,-1.986 -1.9854,0 -1.9854,1.986 -3.9715,1.986 z m 3.9715,-1.986 c 1.9854,0 1.9854,0 1.9854,0 0,0 0,0 -1.9854,0 z m -563.9391,591.7389 c -23.8283,119.142 -158.8562,107.228 -230.3414,184.671 -61.5568,-59.571 -101.2708,-168.784 -11.9143,-236.299 l 95.3136,-53.614 c 61.5569,0 119.1422,49.643 146.9421,105.242 l 0,0 z"
     id="South Africa"
     style="fill:#cccccc;fill-rule:evenodd;stroke:#000000;stroke-width:13.99999809;stroke-opacity:0.90980392" /><path
     d="m 7866.398,4098.7061 7.9428,3.971 -7.9428,-3.971 z m 7.9428,3.971 -87.371,53.614 c -1.9854,0 -1.9854,0 -1.9854,0 l -1.9854,-5.957 -53.614,-29.786 c -35.7425,-19.857 -77.4423,-43.685 -93.328,-81.4135 -19.857,-29.7855 -55.5994,-55.5999 -75.4567,-93.328 l -55.5996,-33.757 -164.8131,-51.6281 c -5.9572,-31.7714 -41.6998,-31.7714 -61.5568,-25.8144 l -51.6281,15.8859 -87.371,-43.6855 c -31.7712,1.9854 -51.6282,-1.9854 -75.4567,25.8142 -15.8854,23.8283 -37.7283,33.7568 -57.5853,51.6281 l -77.4423,5.9572 -7.9428,-1.9855 c 1.9854,-13.9 3.9713,-27.7998 7.9428,-39.7141 -41.6996,-99.285 51.6284,-194.5988 29.7855,-309.7694 l 15.8855,-53.6138 208.4988,-160.842 1.9854,-11.9142 7.9426,-3.9713 c 75.4566,115.1706 101.2708,272.0411 158.8561,379.2689 79.4282,45.6711 162.8277,113.1849 242.2556,138.9991 111.1991,51.6281 129.0707,180.6988 244.2413,214.4558 5.9571,21.8426 27.7998,39.7136 47.6568,61.5566 l -5.957,-1.985 -5.9572,1.985 z"
     id="Eritrea"
     style="fill:#cccccc;fill-rule:evenodd;stroke:#000000;stroke-width:13.99999809;stroke-linejoin:round;stroke-opacity:0.90980392" /><path
     d="m 7872.355,4102.6771 1.9854,0 -1.9854,0 z m 61.5568,200.556 -61.5568,67.514 -5.957,3.971 c -11.9144,-13.9 -31.7714,-19.857 -53.6138,-9.929 -23.8285,29.786 -75.4568,15.886 -95.3138,-23.828 -23.8283,-71.485 37.7283,-127.085 67.5138,-184.67 0,0 0,0 1.9854,0 l 87.371,-53.614 1.9854,0 11.9142,0 c 21.8429,19.857 43.6853,43.685 47.6568,71.485 -65.5281,57.585 -37.7283,91.342 7.9428,121.128 l -9.9285,7.943 z"
     id="Djibouti"
     style="fill:#cccccc;fill-opacity:1;fill-rule:evenodd;stroke:#000000;stroke-width:13.99999809;stroke-linejoin:round;stroke-opacity:0.90980392" /><path
     d="m 7779.0272,6306.8051 -113.1852,-121.128 0,-546.067 121.1278,-168.785 93.3282,-67.514 c 111.1991,-51.628 252.1839,-142.97 355.4403,-109.213 l 389.1972,-486.497 -57.5847,-23.829 c -297.8554,-117.156 -496.4255,-21.842 -694.9958,-333.597 15.8856,-27.8 9.9284,-57.586 -5.957,-75.457 0,0 0,0 0,0 l 5.957,-3.971 61.5568,-67.514 9.9285,-7.943 c 43.6855,29.785 105.2421,57.585 109.2136,105.242 234.3128,3.971 528.1967,-140.985 752.5805,-137.013 99.2856,-19.857 150.914,-109.214 250.1987,-105.243 85.3849,39.715 -21.8431,105.243 45.6707,162.828 -27.7996,289.913 -172.7559,464.654 -252.1834,738.681 -115.1713,313.741 -415.012,557.982 -683.0815,808.18 -39.7142,35.743 -77.4423,71.486 -113.185,107.228 -123.1134,95.314 -176.7274,236.299 -268.0697,339.555 l -5.957,-7.943 z m 87.3708,-1932.087 c 0,0 0,0 0,0 0,0 0,0 0,0 z"
     id="Somalia"
     style="fill:#cccccc;fill-opacity:1;fill-rule:evenodd;stroke:#000000;stroke-width:13.99999809;stroke-linejoin:round;stroke-opacity:0.90980392" /><path
     d="m 6790.1478,5216.6551 c 1.9855,1.986 3.9714,3.972 3.9714,5.957 l -7.9427,0 -140.985,178.714 c -21.8426,9.928 -43.6852,25.814 -65.5279,49.642 l 0,0 11.9142,5.957 c 63.5424,129.071 244.2412,303.812 146.9419,442.812 -57.5853,49.642 -109.2136,123.113 -131.0565,194.598 23.8285,25.814 49.6427,45.671 79.4282,19.857 45.6711,41.7 -69.4995,53.614 -41.6999,103.257 1.9855,9.928 3.9716,17.871 1.9855,27.8 0,0 0,0 0,0 l 524.2251,285.941 c -9.9285,35.742 1.9855,65.528 21.8427,91.342 l 216.4414,166.799 c 37.7283,-67.514 87.3708,-135.028 127.085,-210.484 -25.8142,-93.328 57.5853,-139 125.0991,-170.771 49.6427,-21.843 89.3564,-55.6 123.1134,-93.328 l -5.9569,-7.943 -113.1852,-121.128 0,-546.067 121.1278,-168.785 c -53.614,-11.914 -105.2421,-5.957 -156.8703,-61.557 -148.9276,13.9 -198.57,216.442 -347.4977,121.128 l -196.5844,-127.085 c -39.7142,-9.928 -91.3423,1.986 -137.0135,-7.943 0,-1.985 -1.9854,-3.971 -1.9854,-5.957 l 0,0 c 35.7427,79.428 17.8713,174.742 35.7427,238.284 l -21.8429,-9.928 c -25.814,-19.857 -49.6425,-37.728 -57.5853,-73.471 -5.9572,-39.714 -23.8283,-117.156 15.8857,-154.885 l -3.9716,0 0,-13.9 -23.8283,-13.9 c -11.9141,-57.585 -59.5709,-99.285 -101.2708,-144.956 z m -190.6272,871.723 c 1.9854,0 1.9854,0 1.9854,1.986 0,-1.986 0,-1.986 -1.9854,-1.986 z m 5.9572,3.971 c 0,1.986 0,1.986 0,1.986 0,0 0,0 0,-1.986 z"
     id="Kenya"
     style="fill:#cccccc;fill-rule:evenodd;stroke:#000000;stroke-width:13.99999809;stroke-opacity:0.90980392" /><path
     d="m 6607.4632,6094.3351 c 21.8429,-71.485 73.4712,-144.956 131.0565,-194.598 97.2993,-139 -83.3995,-313.741 -146.9419,-442.812 l -11.9142,-5.957 c -11.9144,13.9 -23.8285,29.786 -35.7427,47.657 -140.9847,37.728 -274.0267,25.814 -411.0402,37.728 53.614,55.6 -21.8426,129.071 -7.9426,184.67 13.8998,19.857 51.6279,21.843 71.4849,33.757 l -105.2419,135.028 c -97.2995,113.185 -131.0563,260.127 -121.1278,405.083 l 109.2134,-11.914 11.9144,0 c 0,1.985 0,1.985 0,1.985 1.9854,-19.857 13.8998,-35.742 47.6568,-47.656 l 160.8418,-5.958 c 0,1.986 0,3.972 0,3.972 0,-45.671 3.9713,-95.314 49.6425,-148.928 37.7283,-27.8 138.9991,29.786 184.6703,-53.614 23.8282,1.986 47.6568,35.743 73.4707,61.557 z m -307.7835,142.971 c 0,0 0,1.985 0,1.985 0,0 0,-1.985 0,-1.985 z m -208.4986,47.657 c 0,0 0,1.985 0,1.985 m 0,0 c 0,0 0,1.985 0,1.985 0,0 0,-1.985 0,-1.985 m 0,3.971 c 0,0 0,0 0,0 0,0 0,0 0,0 z m -200.5559,-855.837 c 0,0 -1.9855,0 -1.9855,0 0,0 1.9855,0 1.9855,0 z"
     id="Uganda"
     style="fill:#cccccc;fill-opacity:1;fill-rule:evenodd;stroke:#000000;stroke-width:13.99999809;stroke-linejoin:round;stroke-opacity:0.90980392" /><path
     d="m 2967.6728,5764.7091 c 7.9428,-33.757 15.8857,-67.514 23.8285,-99.285 21.8429,-121.128 -91.3423,-148.928 -140.9848,-244.241 -19.857,-19.857 -39.7139,-31.772 -61.5566,-37.729 l 1.9855,-7.943 1.9854,-17.871 25.8142,-133.042 146.9417,-152.899 c 63.5425,-53.614 113.1852,-15.885 164.8133,9.929 27.7998,13.899 55.5997,25.814 87.3708,21.842 l 87.371,-103.256 49.6425,-93.328 3.9715,-61.557 19.857,-89.356 51.6279,-45.672 51.6283,-97.299 63.5425,-83.399 25.8142,-85.385 160.8417,-139 c 21.8426,51.629 31.7711,107.228 17.8713,170.771 7.9428,23.828 103.2565,119.142 5.9572,117.156 -71.4854,-7.943 -140.9847,-15.885 -154.8847,51.628 69.4994,111.2 252.184,212.47 216.4413,323.67 l -3.9713,7.943 -53.614,89.356 -45.6712,35.743 -9.9285,43.685 -37.7282,59.571 c 1.9854,27.8 5.9572,57.585 11.9142,89.357 3.9714,25.814 9.9286,51.628 17.8712,77.442 1.9854,3.971 1.9854,9.929 3.9713,15.886 0,15.885 1.9854,31.771 1.9854,49.642 0,0 0,0 0,0 1.9855,1.986 1.9855,5.957 1.9855,9.929 0,0 0,0 0,0 0,0 0,0 0,0 0,1.985 0,1.985 0,1.985 0,0 0,0 0,0 0,0 0,0 0,0 0,3.971 0,5.957 1.9854,9.929 0,0 0,0 0,0 0,0 0,0 0,1.985 0,0 0,0 0,0 0,0 0,0 0,0 0,1.986 0,1.986 0,3.972 0,0 0,0 0,0 0,1.985 0,1.985 0,1.985 1.9854,0 1.9854,0 1.9854,0 0,1.985 0,1.985 0,3.972 0,0 0,0 0,0 0,0 0,0 0,0 0,0 0,0 0,0 0,0 0,0 0,1.985 0,0 0,0 0,0 0,0 0,0 0,0 0,0 0,0 0,0 1.9855,1.985 1.9855,1.985 1.9855,1.985 0,0 0,1.986 0,1.986 0,0 0,0 0,0 0,0 0,0 0,0 0,0 0,0 0,1.985 0,0 0,0 0,0 0,0 0,0 0,0 0,0 1.9854,1.986 1.9854,1.986 15.8855,37.728 57.5853,27.8 81.4138,63.542 15.8857,23.829 33.7568,41.7 53.6138,63.543 17.8713,19.857 29.7855,67.514 49.6427,85.385 l 27.7998,41.699 -11.9144,75.457 c -138.9991,33.757 -291.8979,-65.528 -442.8112,-21.843 -93.328,-9.928 -234.3127,-83.399 -283.9552,-15.885 -75.4566,-21.843 -135.0278,-17.872 -206.5129,-5.957 l -11.9144,-1.986 z m 857.823,-788.323 c 0,0 0,0 -1.9855,0 0,0 0,0 0,0 0,0 0,0 -1.9854,0 0,0 -1.9854,0 -1.9854,0 0,0 0,0 0,0 -1.9855,0 -1.9855,0 -1.9855,0 -1.9854,0 -1.9854,0 -3.9713,0 m 3.9713,-7.943 0,0 m 0,1.985 c 0,0 0,0 0,0 0,0 0,0 0,0 0,0 0,0 0,0 z m -1.9854,0 c 0,0 0,0 0,1.986 0,-1.986 0,-1.986 0,-1.986 z m 0,1.986 c 0,0 0,0 0,0"
     id="Cameroon"
     style="fill:#cccccc;fill-rule:evenodd;stroke:#000000;stroke-width:13.99999809;stroke-linejoin:round;stroke-opacity:0.90980392" /><path
     d="m 1911.2799,5081.6281 23.8283,-71.486 -23.8283,-61.556 -15.8857,-53.614 15.8857,-61.557 0,-63.542 c 77.4423,-69.5 99.2849,-137.014 135.0276,-210.485 9.9285,-19.857 19.8569,-41.699 33.757,-61.556 l -35.7427,-238.285 170.7703,-264.098 c 144.9563,-79.4279 262.1126,39.714 375.2975,101.271 85.3851,-57.5855 212.4701,13.9 301.8266,53.614 l 214.4557,-81.414 242.2556,49.643 c 71.4854,-7.943 138.9992,-140.9853 206.513,-95.3142 l 23.8282,23.8283 c -1.9854,17.8716 -1.9854,31.7719 -1.9854,31.7719 1.9854,7.942 3.9713,17.871 3.9713,25.813 7.9429,55.6 39.714,71.486 75.4567,71.486 29.7853,41.7 55.5995,85.385 75.4565,129.07 l 0,0 -160.8417,139 -25.8141,85.385 -63.5425,83.399 -51.6284,97.299 -51.6279,45.672 -19.857,89.356 -3.9715,61.557 -49.6425,93.328 -87.371,103.256 c -31.7711,3.972 -59.5709,-7.943 -87.3708,-21.842 -51.6281,-25.814 -101.2708,-63.543 -164.8133,-9.929 l -146.9417,152.899 -25.8142,133.042 -1.9854,17.871 -1.9854,7.943 c -113.1852,-35.742 -246.2272,93.328 -381.2548,29.786 -123.1134,-43.686 -85.3853,-200.556 -198.5701,-274.027 -99.2851,-69.499 -198.5703,-65.528 -297.8552,-57.585 l 0,0 z"
     id="Nigeria"
     style="fill:#cccccc;fill-rule:evenodd;stroke:#000000;stroke-width:13.99999809;stroke-linejoin:round;stroke-opacity:0.90980392" /><path
     d="m 5191.6583,2760.3428 -39.7142,-1119.9355 c -93.3279,-91.3422 41.6999,-176.7273 -21.8426,-272.041 l 35.7426,-55.5996 11.9142,-13.8999 c 13.9,9.9284 27.7998,21.8426 39.714,33.7569 188.6418,-53.614 327.6409,43.6854 526.2111,81.4137 65.5281,-27.7999 146.9418,-63.5424 218.4271,-103.2565 0,0 0,0 0,0 0,0 0,0 0,0 0,0 0,0 0,0 0,0 0,0 0,0 0,0 0,0 0,0 3.9713,-15.8856 55.5994,-1.9856 55.5994,-1.9856 51.6284,25.8142 107.2282,75.4567 162.8277,47.6568 11.9143,-19.857 63.5424,-3.9714 63.5424,-3.9714 41.6997,15.8857 81.4136,0 117.1563,-25.8141 1.9854,73.471 65.5282,196.5845 101.2708,258.1412 l 9.9285,27.7999 0,9.9284 0,0 c -11.9141,9.9286 -15.8854,29.7855 -11.9141,43.6855 0,0 -13.9001,65.5282 -9.9285,89.3565 -9.9285,27.7998 -21.8429,53.614 -33.757,69.4996 -11.9142,13.8999 -21.8427,19.857 -31.7712,11.9142 -3.9713,-3.9715 -7.9428,-7.9428 -11.9141,-11.9142 -51.6284,-51.6283 -133.0422,-204.5273 -133.0422,-204.5273 -15.8854,-27.7998 -37.7281,-55.5996 -47.6566,-81.4137 -5.9572,-7.9428 -11.9143,-11.9142 -19.8572,-13.8999 -21.8426,0 -41.6996,29.7855 -37.7283,59.571 19.8572,45.6712 57.5855,81.4138 95.3136,115.1706 0,0 47.6568,85.3852 89.3567,125.0993 9.9285,7.9427 17.8713,15.8856 25.8139,17.8713 7.9431,19.857 11.9144,41.6997 9.9287,65.5281 65.5282,162.8275 206.513,307.7837 305.7979,464.6541 0,0 21.8429,27.7998 9.9285,65.5282 -31.7711,137.0134 168.7846,190.6273 222.3986,301.8265 1.9854,3.9713 3.9713,9.9284 5.9572,13.9 l -31.7714,7.9426 -1664.0176,0 -11.9142,-1.9854 z m 980.9364,-1235.1061 0,0 0,0 0,0 z"
     id="Egypt"
     style="fill:#cccccc;fill-rule:evenodd;stroke:#000000;stroke-width:13.99999809;stroke-linejoin:round;stroke-opacity:0.90980392" /><path
     d="m 3094.7578,1509.3511 c -15.8855,-79.4281 -37.7283,-166.7989 -45.6712,-258.1412 -83.3995,-43.6855 -87.3708,-160.8418 -168.7844,-216.4414 l 0,-109.21355 c 137.0133,-111.1992 109.2135,-283.9553 144.9561,-401.1116 l 1.9855,-15.8856 c 29.7854,-1.9857 55.5996,-9.9285 81.4138,-29.7856 69.4994,-63.5424 99.2849,-3.9714 146.9417,29.7856 11.9144,9.9285 25.8142,11.9142 41.6999,13.8999 0,0 79.4279,-17.8713 31.7711,45.6711 -13.8998,19.857 -31.7711,39.714 -35.7426,63.5424 95.3138,99.2851 21.8428,230.3414 -79.428,279.9839 3.9713,85.3852 91.3423,97.29935 158.8561,129.07055 l -1.9854,13.8999 c 65.5283,174.7417 -140.9846,156.8705 -178.7131,272.041 l -5.957,33.757 c -7.9428,55.5996 -13.9,99.285 -85.3853,148.9276 l -5.957,0 z"
     id="Tunisia"
     style="fill:#cccccc;fill-rule:evenodd;stroke:#000000;stroke-width:13.99999809;stroke-linejoin:round;stroke-opacity:0.90980392" /><path
     d="m 3823.5101,4976.3861 0,-1.986 -1.9854,1.986 c 0,0 0,0 -1.9855,0 l -3.9713,-3.972 1.9855,-3.971 c 35.7426,-111.2 -146.9419,-212.47 -216.4414,-323.67 13.9001,-67.513 83.3994,-59.571 154.8848,-51.628 97.2992,1.986 1.9854,-93.328 -5.9572,-117.156 13.8998,-63.543 3.9713,-119.142 -17.8714,-170.771 l 0,0 c -17.8713,-43.685 -45.6711,-83.399 -73.4706,-125.099 55.5993,-19.857 103.2561,-55.599 93.3276,-75.457 -137.0131,-258.1406 -166.7988,-123.1128 -172.756,-55.599 0,-1.9854 0,-1.9854 0,-1.9854 l -21.8424,-21.8427 c -3.9716,-7.9428 -7.9431,-13.8998 -7.9431,-17.8713 l -5.957,-73.471 c 45.6712,-125.0991 160.8417,-285.9409 295.8695,-395.1545 l 19.857,-422.9544 53.6138,-103.2564 c -148.9276,-127.0848 -77.4423,-262.1126 -135.0276,-397.1402 l 0,-5.9571 176.7274,-99.285 1108.0213,599.6818 15.8857,597.6959 -142.9707,41.6998 c 43.6855,87.3708 -115.1706,135.0276 -73.4709,230.3413 -41.6997,33.757 -25.8142,99.2852 -37.7281,152.8992 -23.8286,15.885 17.8711,57.585 17.8711,57.585 37.7283,23.829 39.7142,89.357 29.7857,123.114 -3.9713,61.556 119.1419,79.428 73.471,146.942 -168.7849,-99.285 -184.6703,186.655 -341.5408,212.47 -85.3851,111.199 -248.2125,17.871 -293.8839,178.713 -162.8274,79.428 -339.5547,109.213 -486.4966,125.099 0,0 0,0 0,0 0,0 0,0 0,0 z m -244.2414,-915.4089 0,0 c 0,0 0,0 0,-1.9854 0,1.9854 0,1.9854 0,1.9854 z m 0,-1.9854 c 0,0 0,0 0,0 0,0 0,0 0,0 z m 0,-7.9428 c 0,0 0,-1.9855 0,-1.9855 0,0 0,1.9855 0,1.9855 z m 236.2986,921.3651 0,0 c 0,0 0,0 0,0 z m 1.9854,-3.971 0,0 m 5.9572,7.943 c 0,0 0,0 0,0 0,0 0,0 0,0 z m -7.9428,-5.957 c 0,0 0,0 0,1.985 0,-1.985 0,-1.985 0,-1.985 z m 5.9571,5.957 0,0 0,0 0,0 -1.9854,0 c 1.9854,0 1.9854,0 1.9854,0 z m -3.9715,-5.957 c 0,0 0,0 0,0 0,0 0,0 0,0 0,0 0,0 0,0 z"
     id="Chad"
     style="fill:#cccccc;fill-rule:evenodd;stroke:#000000;stroke-width:13.99999809;stroke-linejoin:round;stroke-opacity:0.90980392" /><path
     d="m 5062.5877,3109.8264 -1108.0213,-599.6818 -258.1413,142.9705 c -75.4565,-93.328 -210.4841,-95.3137 -331.6119,-142.9705 -1.9854,-107.228 -150.9133,-162.8276 -220.413,-168.7847 -11.9141,-89.3566 -162.8274,-176.7274 -67.5138,-258.1412 11.9144,-89.3565 69.4997,-174.7417 23.8283,-279.9839 33.7571,-83.3994 17.8716,-182.6845 -5.9569,-293.8837 l 5.9569,0 c 71.4854,-49.6426 77.4426,-93.328 85.3854,-148.9276 l 5.957,-33.757 c 37.7285,-115.1705 244.2414,-97.2993 178.7131,-272.041 l 1.9854,-13.8999 c 0,0 0,0 -1.9854,0 l 0,0 c 25.8141,11.9142 49.6427,25.8141 63.5425,49.6425 103.2566,49.6425 224.3844,29.7856 333.5978,61.5568 43.6852,11.9142 85.3851,33.7569 123.1134,69.4994 11.9142,188.6417 238.2841,127.085 347.4977,184.6703 67.5138,3.9714 107.228,117.1564 192.6129,95.3136 166.799,-85.3851 21.8429,-184.6701 95.3139,-274.0267 39.7139,-29.7855 75.4566,-55.5997 109.2136,-75.4566 61.5566,-33.757 119.1419,-45.6712 192.6129,-19.8571 5.9572,7.9428 11.9142,13.8999 17.8714,19.8571 91.3421,83.3994 226.3699,71.4852 333.5976,146.9419 l -1.9854,0 -11.9141,13.8999 -35.7427,55.5996 c 63.5425,95.3137 -71.4853,180.6988 21.8426,272.041 l 39.7142,1119.9355 11.9142,299.8409 c -61.5568,33.757 -113.185,-31.7711 -140.9848,49.6427 z"
     id="Lybia"
     style="fill:#cccccc;fill-rule:evenodd;stroke:#000000;stroke-width:13.99999809;stroke-linejoin:round;stroke-opacity:0.90980392" /><path
     d="m 3364.8132,2510.1446 c -285.9409,198.5701 -540.1108,279.9837 -810.1663,526.2108 -123.1132,111.1991 -339.5548,89.3565 -464.6539,101.2709 -3.9716,-168.7849 -258.1413,-140.9851 -289.9124,-309.7697 L 604.68849,1775.435 l -1.9855,-3.9714 11.9144,-71.4853 41.6996,-162.8274 c 95.3136,-31.7713 200.556,-123.1135 311.7551,-95.3137 35.74261,-55.5997 97.29921,-13.8999 140.98471,-37.7283 73.471,-123.1135 214.4559,-67.5139 264.0985,-206.5129 71.4852,-69.4995 206.513,-109.2136 315.7264,-79.4281 59.5712,-67.5138 -45.6712,-138.99895 -19.857,-200.55575 l -1.9854,-258.1411 c 35.7426,1.9857 61.5568,-5.9571 61.5568,-5.9571 99.2849,-37.7284 212.4699,-79.4281 317.712,-117.1564 182.6847,-35.7426 371.3263,-105.2422 538.1252,-39.714 49.6425,27.7998 97.2993,-1.9857 97.2993,-1.9857 117.1565,-53.614 242.2556,23.8284 347.4977,13.8999 0,0 -1.9854,0 -1.9854,0 l -1.9855,15.8856 c -35.7426,117.1563 -7.9428,289.9124 -144.9561,401.1116 l 0,109.21355 c 81.4136,55.5996 85.3849,172.7559 168.7844,216.4414 7.9429,91.3423 29.7857,178.7131 45.6712,258.1412 23.8285,111.1992 39.714,210.4843 5.9569,293.8837 45.6714,105.2422 -11.9139,190.6274 -23.8282,279.9839 -95.3137,81.4138 55.5996,168.7846 67.5138,258.1412 69.4996,5.9571 218.4272,61.5567 220.4129,168.7847 z M 1629.3103,651.52825 c 0,0 0,0 0,0"
     id="Algeria"
     style="fill:#cccccc;fill-rule:evenodd;stroke:#000000;stroke-width:13.99999809;stroke-linejoin:round;stroke-opacity:0.90980392" /><path
     d="m 614.61689,1699.9783 -47.657,276.0126 -426.9257,-33.7569 -79.427998,399.1259 c -57.5853003,-7.9428 -138.9991,21.8427 -168.784602,89.3565 -5.9571,67.5139 -9.9285,182.6846 -99.2851,200.5559 l -456.7113,-69.4996 -5.957,-17.8713 c 5.957,-7.9428 9.9284,-13.8999 9.9284,-13.8999 105.2422,-154.8846 170.7704,-331.6121 323.6693,-452.7398 101.2708,-27.7999 99.2851,-168.7847 168.7847,-252.1841 21.8427,-25.8142 49.6425,-45.6711 89.356502,-55.5997 41.6997,-61.5567 89.3566,-105.2421 140.9848,-135.0277 l 19.8571,0 532.167898,65.5281 z"
     id="Western Sahara"
     style="fill:#cccccc;fill-rule:evenodd;stroke:#000000;stroke-width:13.99999809;stroke-linejoin:round;stroke-opacity:0.90980392" /><path
     d="m 1667.0386,659.47105 1.9855,258.1411 c -25.8142,61.5568 79.4281,133.04195 19.8569,200.55575 -109.2134,-29.7855 -244.2412,9.9286 -315.7263,79.4281 -49.6427,138.999 -190.6275,83.3994 -264.0985,206.5129 -43.6855,23.8284 -105.2421,-17.8714 -140.98481,37.7283 -111.1991,-27.7998 -216.4414,63.5424 -311.755,95.3137 l -41.6997,162.8274 -532.167998,-65.5281 -19.857,0 c 87.370898,-53.6139 182.684498,-75.4566 279.983898,-101.2707 138.9992,-71.4853 242.2554,-230.3414 256.1554,-381.2546 1.9855,-5.9572 1.9855,-11.9143 1.9855,-19.8571 85.3851,-202.54145 268.0697,-281.96945 448.76851,-367.35465 95.3138,-55.5996 113.185,-228.3556 230.3414,-222.3985 89.3565,103.2565 228.3557,83.3994 345.5121,109.2136 15.8855,3.9714 29.7855,5.9571 41.6997,7.9428 z M 56.634792,1638.4216 c 0,-1.9856 1.9857,-1.9856 1.9857,-1.9856 0,0 -1.9857,0 -1.9857,1.9856 z"
     id="Morocco"
     style="fill:#cccccc;fill-rule:evenodd;stroke:#000000;stroke-width:14.00791168;stroke-linejoin:round;stroke-miterlimit:4;stroke-opacity:0.90980392;stroke-dasharray:none" /><path
     d="m 2044.3218,4259.5471 c -27.7998,-61.556 -95.3136,-73.471 -133.0419,-67.514 -55.5997,162.828 -206.513,67.514 -258.1411,246.227 73.4708,111.2 79.428,222.399 105.2421,353.455 l -21.8428,285.941 0,13.9 c 3.9715,0 9.9285,-1.985 13.9,-1.985 53.614,1.985 107.2278,-3.972 160.8418,-7.943 l 0,0 23.8283,-71.485 -23.8283,-61.557 -15.8857,-53.614 15.8857,-61.557 0,-63.542 c 77.4423,-69.5 99.2849,-137.014 135.0276,-210.485 9.9285,-19.857 19.8569,-41.699 33.757,-61.556 l -35.7427,-238.284 z m -133.0419,822.081 c 0,0 0,0 1.9854,0 l 0,0 c -1.9854,0 -1.9854,0 -1.9854,0 z"
     id="Benin"
     style="fill:#cccccc;fill-rule:evenodd;stroke:#000000;stroke-width:13.99999809;stroke-linejoin:round;stroke-opacity:0.90980392" /><path
     d="m 1647.1816,5103.4701 -45.6711,-53.614 -27.7999,-516.282 c -15.8856,-57.585 -101.2708,-123.113 -53.614,-168.785 55.5997,15.886 121.1278,-21.842 148.9277,27.8 l 1.9854,1.986 c -7.9431,11.914 -13.9,25.814 -17.8713,43.685 73.4707,111.199 79.4279,222.399 105.2421,353.455 l -21.8429,285.941 0,13.9 c -27.7998,3.971 -57.5853,11.914 -87.3708,21.843 l -1.9854,-9.929 z m 182.6844,-15.885 0,0 c -13.8998,1.985 -27.7998,1.985 -41.6996,1.985 13.8998,0 27.7998,0 41.6996,-1.985 z m -47.6568,1.985 c -3.9713,0 -7.9426,0 -11.9141,0 3.9715,0 7.9428,0 11.9141,0 z m -11.9141,0 c 0,0 -1.9855,0 -1.9855,0 0,0 0,0 0,0 -1.9854,0 -1.9854,0 -1.9854,0 0,0 0,0 0,0 -1.9854,0 -1.9854,0 -1.9854,0 0,0 0,0 -1.9855,0 0,0 0,0 0,0 0,0 0,0 0,0 -1.9854,0 -1.9854,0 -1.9854,0 0,0 0,0 0,0 0,0 0,0 -1.9854,0 0,0 0,0 0,0 0,0 0,0 0,0 -1.9855,0 -1.9855,0 -1.9855,0"
     id="Togo"
     style="fill:#cccccc;fill-rule:evenodd;stroke:#000000;stroke-width:13.99999809;stroke-linejoin:round;stroke-opacity:0.90980392" /><path
     d="m 2111.8356,3691.6369 c 91.3423,-150.9133 95.3136,-357.4262 103.2565,-544.0824 l 1.9854,-15.8854 c 115.1706,-3.9716 250.1982,-15.8857 337.569,-95.3137 270.0554,-246.2271 524.2254,-327.6407 810.1663,-526.2108 121.1278,47.6568 256.1554,49.6425 331.6119,142.9705 l 81.4138,-43.6855 0,5.9571 c 57.5853,135.0276 -13.9,270.0555 135.0276,397.1402 l -53.6138,103.2565 -19.8569,422.9543 c -135.0279,109.2137 -250.1984,270.0555 -295.8695,395.1546 l 5.9569,73.4709 c 0,3.9716 3.9716,9.9285 7.9431,17.8714 l -1.9854,-1.9855 c -67.5138,-45.6711 -135.0276,87.371 -206.513,95.314 l -242.2556,-49.6428 -214.4557,81.4138 c -89.3565,-39.714 -216.4415,-111.1993 -301.8266,-53.614 -113.1849,-61.5568 -230.3412,-180.6987 -375.2975,-101.2708 l -170.7703,264.0988 c -27.7998,-61.557 -95.3136,-73.471 -133.0419,-67.514 -3.9716,13.9 -9.9285,23.828 -13.9001,33.756 l -7.9426,-17.871 c -21.8428,-51.628 -67.5138,-83.399 -105.2423,-79.428 -57.5853,-113.1848 -220.4127,-224.3841 -190.6273,-363.383 l 105.2422,-15.8857 c 123.1136,-73.471 291.898,27.7998 413.0258,-57.5853 z"
     id="Niger"
     style="fill:#cccccc;fill-rule:evenodd;stroke:#000000;stroke-width:14.00791168;stroke-linejoin:round;stroke-miterlimit:4;stroke-opacity:0.90980392;stroke-dasharray:none" /><path
     d="m 1057.4283,5234.5271 13.9,-61.557 -51.6283,-47.657 0,-97.299 63.5422,-142.971 49.6427,-59.571 11.9144,-79.428 -51.6284,-168.784 c 65.5282,-77.443 -15.8856,-133.042 43.6853,-212.471 l 383.2404,0 c -47.6568,45.672 37.7284,111.2 53.614,168.785 l 27.7999,516.282 45.6711,53.614 1.9855,9.929 0,0 c -190.6273,63.542 -403.0974,218.427 -597.6962,135.028 l 5.9572,-13.9 z"
     id="Ghana"
     style="fill:#cccccc;fill-rule:evenodd;stroke:#000000;stroke-width:13.99999809;stroke-linejoin:round;stroke-opacity:0.90980392" /><path
     d="m 362.43289,5327.8551 c 27.7998,-87.371 27.7998,-256.156 -89.3567,-323.67 l -11.9142,-158.856 c 35.7427,-31.771 51.6284,-71.485 35.7427,-105.242 105.2421,-55.6 49.6425,-156.871 21.8427,-242.255 9.9284,-148.928 113.1849,-49.643 220.4129,-89.357 93.328,-83.4 111.1991,125.099 212.4699,41.7 89.3567,194.598 236.2984,-1.986 341.54071,127.085 l 51.6284,168.784 -11.9144,79.428 -49.6427,59.571 -63.5422,142.971 0,97.299 51.6283,47.657 -13.9,61.557 -5.9572,13.9 c 0,1.985 0,1.985 1.9854,1.985 l 0,0 c -7.9426,-3.971 -13.8998,-5.957 -21.8426,-9.928 -23.8285,-23.829 -65.52821,-5.958 -65.52821,-5.958 -105.2421,25.815 -224.3842,-59.571 -297.8552,-21.842 -91.3421,7.943 -206.5129,113.185 -305.7979,115.17 z"
     id="Ivory Coast"
     style="fill:#cccccc;fill-rule:evenodd;stroke:#000000;stroke-width:13.99999809;stroke-linejoin:round;stroke-opacity:0.90980392" /><path
     d="m 1593.5676,3765.1079 c -204.5272,-17.8716 -395.1545,89.3564 -552.025,230.3412 -135.02761,-67.5138 -79.42791,123.114 -178.71311,160.842 -99.2849,5.957 -83.3995,125.099 -79.4279,170.77 l -31.7714,123.114 c 89.3567,194.598 236.2984,-1.986 341.54071,127.085 65.5282,-77.443 -15.8856,-133.042 43.6853,-212.471 l 383.2404,0 c 55.5997,15.886 121.1278,-21.842 148.9277,27.8 l 1.9854,1.986 c 57.5853,-109.214 168.7844,-63.543 226.3697,-168.785 l -7.9426,-17.871 c -21.8429,-51.628 -67.5138,-83.4 -105.2424,-79.428 -57.5853,-113.1852 -220.4127,-224.3845 -190.6272,-363.3834 z m 309.7694,446.7822 c 0,0 0,0 0,0 0,0 0,0 0,0 z m 1.9855,-3.971 c 0,-1.985 0,-1.985 0,-1.985 0,0 0,0 0,1.985 z m 1.9854,-7.943 c 1.9854,0 1.9854,0 1.9854,-1.985 0,1.985 0,1.985 -1.9854,1.985 z m 3.9715,-5.957 c 0,0 0,0 0,-1.985 0,1.985 0,1.985 0,1.985 z m -244.2412,208.499 c -1.9855,1.985 -1.9855,3.971 -3.9716,5.957 1.9855,-1.986 1.9855,-3.972 3.9716,-5.957 z m -3.9716,5.957 c 0,1.985 -1.9854,3.971 -1.9854,5.957 0,-1.986 1.9854,-3.971 1.9854,-5.957 z m -1.9854,7.943 c -3.9713,5.957 -5.957,13.9 -7.9426,21.842 1.9854,-7.942 3.9713,-15.885 7.9426,-21.842 z"
     id="Burkina Faso"
     style="fill:#cccccc;fill-rule:evenodd;stroke:#000000;stroke-width:13.99999809;stroke-linejoin:round;stroke-opacity:0.90980392" /><path
     d="m -191.57791,4904.9001 c 85.3852,-15.885 146.941902,-276.012 279.983902,-216.441 61.556798,33.757 11.914298,73.471 15.885598,109.213 -15.885598,95.314 113.1851,77.443 156.8704,47.657 l 11.9142,158.856 c 117.1565,67.514 117.1565,236.299 89.3567,323.67 -17.8714,0 -33.7571,-1.986 -51.6284,-9.929 -178.713,-111.199 -333.597798,-279.984 -504.3681,-411.04 l 1.9857,-1.986 z m 657.2672,393.169 0,0 c 0,0 -1.9854,1.986 -1.9854,1.986 0,0 1.9854,-1.986 1.9854,-1.986 z"
     id="Liberia"
     style="fill:#cccccc;fill-rule:evenodd;stroke:#000000;stroke-width:13.99999809;stroke-linejoin:round;stroke-opacity:0.90980392" /><path
     d="m -12.864708,4696.4021 c -53.6139,-97.3 -11.9143,-168.785 -111.199302,-258.142 l -146.9419,5.958 -121.1278,97.299 -11.9142,7.943 c -17.8713,111.199 33.7569,216.441 113.185,287.926 33.7569,21.843 65.5281,45.671 97.2993,69.5 l 1.9857,-1.986 c 61.5568,-11.914 109.213602,-144.956 178.713202,-200.556 l 0,-7.942 z m -111.199302,266.084 c 1.9856,1.985 1.9856,1.985 3.9714,1.985 -1.9857,0 -1.9857,0 -3.9714,-1.985 z"
     id="Sierra Leone"
     style="fill:#cccccc;fill-rule:evenodd;stroke:#000000;stroke-width:13.99999809;stroke-linejoin:round;stroke-opacity:0.90980392" /><path
     d="m -618.50361,4207.9191 c 41.6997,-67.514 101.2707,-39.714 152.899,-89.356 3.9714,-43.6861 17.8713,-95.3142 61.5567,-111.1999 113.185,31.7714 188.6417,61.5569 279.9839,37.7284 l 21.8427,67.5145 c 107.2278017,-15.886 224.3842,37.728 325.655,-37.7291 9.9286,27.8001 43.6855,21.8431 59.571,37.7291 15.8857,17.871 15.8857,57.585 25.8142,85.385 15.8856,45.671 -5.9572,97.299 11.9141,142.97 9.9287,23.828 21.8429,47.657 35.7427,73.471 l 0,1.985 c -19.857,9.929 -33.757,31.771 -37.7283,81.414 27.7998,85.385 83.3994,186.656 -21.8427,242.256 15.8857,33.757 0,73.47 -35.7427,105.242 -43.6853,29.785 -172.755998,47.657 -156.8704,-47.657 -3.9713,-35.743 45.6712,-75.457 -15.885598,-109.214 -39.714,-17.871 -71.4852,-7.942 -101.2707,15.886 l 0,-7.943 c -53.6139,-97.299 -11.9143,-168.784 -111.199302,-258.141 l -146.9419,5.957 -121.1278,97.299 -11.9142,7.943 0,0 c 0,-3.971 1.9857,-7.943 1.9857,-13.9 -19.8571,-31.771 -19.8571,-67.514 -41.6997,-97.299 -15.8856,-23.829 -37.7284,-63.543 -53.614,-85.385 -21.8427,-29.786 -41.6997,-63.543 -65.5282,-95.314 -15.8856,-19.857 -35.7426,-35.742 -55.5996,-49.642 z m 603.653202,498.411 c 0,0 0,0 0,0 0,0 0,0 0,0 z"
     id="Guinea"
     style="fill:#cccccc;fill-rule:evenodd;stroke:#000000;stroke-width:13.99999809;stroke-linejoin:round;stroke-opacity:0.90980392" /><path
     d="m -827.00221,4007.3632 c 115.1707,19.857 281.9695,-67.5138 399.1259,9.9285 l 1.9857,3.9716 c -25.8141,21.8426 -37.7283,63.5418 -39.714,97.2998 -51.6282,49.642 -111.1992,21.842 -152.899,89.356 -27.7998,-21.843 -55.5996,-41.7 -77.4423,-71.485 -85.3851,-37.728 -125.0992,-79.4284 -140.9848,-125.0993 l 9.9285,-3.9716 z"
     id="Guinea-Bissau"
     style="fill:#cccccc;fill-rule:evenodd;stroke:#000000;stroke-width:13.99999809;stroke-linejoin:round;stroke-opacity:0.90980392" /><path
     d="m -828.98791,3786.9505 c 9.9285,-1.9854 35.7426,-5.9572 79.428,-5.9572 61.5567,0 131.0563,-23.8285 131.0563,-23.8285 0,0 45.6711,-29.7855 138.9991,39.7142 91.3422,67.5138 -21.8427,63.5425 -21.8427,63.5425 l -117.1564,-43.6855 c -99.285,-13.9 -123.1134,115.1706 -216.4414,43.6855 l -1.9857,0 c 1.9857,-23.8285 5.9571,-47.6568 7.9428,-73.471 z"
     id="Gambia"
     style="fill:#cccccc;fill-rule:evenodd;stroke:#000000;stroke-width:13.99999809;stroke-linejoin:round;stroke-opacity:0.90980392" /><path
     d="m -709.84581,3346.1248 208.4986,-7.9428 c 174.7416,63.5425 186.6559,218.4271 331.6121,337.5692 l -5.9572,162.8274 c 61.5568,45.6712 101.270802,138.9992 51.6283,206.513 -91.3422,23.8285 -166.7989,-5.957 -279.9839,-37.7284 -7.9427,3.9716 -13.8999,7.9429 -19.857,11.9144 l -7.9428,-5.9572 -1.9856,0 c -117.1564,-69.4996 -279.9839,13.8998 -393.1689,-5.9572 l -9.9284,3.9716 c -17.8714,-45.6712 -9.9286,-97.2995 0,-150.9133 l 1.9856,0 c 93.328,71.4851 117.1564,-57.5855 216.4414,-43.6855 l 117.1564,43.6855 c 0,0 113.1849,3.9713 21.8427,-63.5425 -93.328,-69.4997 -138.9991,-39.7142 -138.9991,-39.7142 0,0 -69.4995,23.8285 -131.0562,23.8285 -43.6855,0 -67.5139,3.9713 -77.4424,5.9572 3.9714,-49.6427 0,-103.2564 -29.7855,-158.8561 -37.7283,-19.857 15.8856,-67.5138 15.8856,-67.5138 55.5996,-67.514 91.3423,-142.9707 119.1421,-218.4273 l 11.9142,3.9715 z"
     id="Senegal"
     style="fill:#cccccc;fill-rule:evenodd;stroke:#000000;stroke-width:13.99999809;stroke-linejoin:round;stroke-opacity:0.90980392" /><path
     d="m -169.73511,3675.7512 c 77.442302,3.9713 33.7569,-91.3423 97.299302,-111.1993 31.7712,61.5566 95.3137,95.3136 160.8418,37.7283 l 679.109898,31.7714 45.6711,-105.2424 -23.8285,-111.1993 35.7427,-1252.9774 216.44141,0 3.9715,-1.9856 754.5665,665.2097 c 31.7711,168.7846 285.9408,140.9848 289.9124,309.7697 35.7426,-3.9716 81.4138,-3.9716 127.0849,-5.9572 l -1.9854,15.8854 c -7.9428,186.6562 -11.9141,393.1691 -103.2565,544.0824 -121.1277,85.3851 -289.9121,-15.8857 -413.0258,57.5853 l -105.2421,15.8857 c -204.5273,-17.8716 -395.1546,89.3564 -552.0251,230.3412 -135.02761,-67.5138 -79.42791,123.114 -178.71311,160.842 -99.2849,5.957 -83.3994,125.099 -79.4279,170.77 l -31.7714,123.114 c -101.2708,83.399 -119.1419,-125.1 -212.4699,-41.7 -69.4996,25.814 -140.9847,-7.943 -182.6846,7.943 l 0,-1.986 c -13.8998,-25.814 -25.8139,-49.642 -35.7427,-73.47 -17.8713,-45.672 3.9716,-97.3 -11.9141,-142.971 -9.9285,-27.8 -9.9285,-67.514 -25.8142,-85.385 -15.8854,-15.886 -49.6424,-9.929 -59.571,-37.7286 -101.2707,75.4566 -218.4270983,21.8426 -325.6549,37.7286 l -21.8428,-67.5141 c 49.642502,-67.5138 9.9286,-160.8418 -51.6282,-206.5129 l 5.9571,-162.8274 z m 935.2653,798.2519 c 0,1.985 0,1.985 0,1.985 0,0 0,0 0,-1.985 z m 3.9713,7.943 c 0,0 0,1.985 0,1.985 0,0 0,-1.985 0,-1.985 z m 3.9716,5.957 c 0,1.986 0,1.986 1.9854,1.986 -1.9854,0 -1.9854,0 -1.9854,-1.986 z m 3.9713,5.957 c 0,1.985 1.9854,1.985 1.9854,1.985 0,0 -1.9854,0 -1.9854,-1.985 z m 5.9572,5.957 c 0,1.986 0,1.986 0,1.986 0,0 0,0 0,-1.986 z m 3.9713,5.957 c 0,0 1.9854,1.986 1.9854,1.986 0,0 -1.9854,-1.986 -1.9854,-1.986 z"
     id="Mali"
     style="fill:#cccccc;fill-rule:evenodd;stroke:#000000;stroke-width:13.99999809;stroke-linejoin:round;stroke-opacity:0.90980392" /><path
     d="m -721.76001,3340.1677 c 19.857,-55.5997 35.7425,-113.185 47.6568,-166.799 13.8998,-49.6425 23.8284,-95.3136 35.7426,-137.0133 29.7855,-85.3851 -71.4852,-174.7418 27.7998,-264.0982 7.9428,-41.6998 -13.8999,-99.2851 -43.6854,-142.9706 -31.7713,-21.8427 -31.7713,-47.6569 -25.8142,-67.5139 l 15.8856,0 456.7113,69.4996 c 89.3566,-17.8713 93.328,-133.042 99.2851,-200.5559 29.785502,-67.5138 111.1993017,-97.2993 168.784602,-89.3565 l 79.427998,-399.1259 426.9257,33.7569 35.7427,-204.5273 1.9854,3.9714 440.82571,387.2118 -3.9715,1.9857 -216.44151,0 -35.7426,1252.9774 23.8285,111.1993 -45.6712,105.2424 -679.109798,-31.7714 c -65.5282,57.5853 -129.0706,23.8283 -160.8418,-37.7283 -63.542402,19.857 -19.857,115.1706 -97.299402,111.1993 -144.9561,-119.1421 -156.8704,-274.0267 -331.6121,-337.5692 l -208.4986,7.9428 -9.9285,-3.9715 -1.9856,-1.9854 z"
     id="Mauritania"
     style="fill:#cccccc;fill-rule:evenodd;stroke:#000000;stroke-width:13.99999809;stroke-opacity:0.90980392" /><path
     d="m 6626.4809,4530.9398 c 7.1982,-60.316 28.5445,-87.687 101.0225,-133.358 -17.8712,-73.471 33.757,-154.885 73.4712,-222.399 111.199,-47.656 107.2277,-174.741 119.1419,-276.012 l 0,0 0,0 0,0 0,0 c 1.9857,-13.9 3.9713,-27.799 7.9428,-39.714 -41.6996,-99.285 51.6284,-194.599 29.7855,-309.769 l 15.8855,-53.614 208.4989,-160.842 1.9854,-11.914 7.9426,-3.971 c -35.7428,-53.614 -83.3997,-99.286 -150.9135,-125.099 -1.9854,-3.972 -3.9713,-5.958 -5.9567,-9.929 -47.6572,-113.185 -85.3855,-289.912 -137.0136,-418.983 l -31.7714,7.943 -1664.0176,0 -11.9142,-1.986 11.9142,299.841 c -61.5569,33.757 -113.185,-31.771 -140.9847,49.643 l 15.8857,597.696 -142.9708,41.7 c 43.6855,87.37 -115.1706,135.027 -73.471,230.341 -41.6996,33.757 -25.8142,99.285 -37.7281,152.898 -23.8285,15.886 17.8711,57.586 17.8711,57.586 37.7284,23.828 39.7142,89.356 29.7857,123.113 -3.9713,61.557 119.142,79.428 73.471,146.942 33.7568,77.443 135.0276,178.713 95.3134,242.256 21.843,67.514 -54.0309,56.213 36.7073,81.45 l 70.7123,-54.055 0,-72.105 30.5057,-27.732 -2.7732,-41.599 41.5986,-38.825 0,-30.506 124.796,-27.732 44.372,66.558 19.4127,41.598 13.8663,19.413 58.2381,22.186 38.8253,-24.959 144.2089,2.773 27.7324,41.599 91.517,-5.547 63.7847,-52.691 61.0113,0 8.3198,-52.692 55.4649,-33.279 63.7847,19.413 69.3312,55.465 72.1043,2.773 94.2902,-85.971 5.5465,-30.505 74.8777,-72.105 19.4127,-8.32 -19.4127,-24.959 -2.7732,-80.424 -41.5988,-36.052 83.1974,-2.773 11.0928,-13.867 0,-16.639 80.4242,-11.093 -11.093,113.703 13.8662,94.29 0,22.186 41.5989,11.093 47.145,72.105 49.9184,13.866 z m 265.8351,-1779.504 c 1.9855,1.986 1.9855,3.972 3.9713,7.943 -1.9854,-3.971 -1.9854,-5.957 -3.9713,-7.943 z m 3.9711,7.943 c 0,1.985 0,3.971 1.9855,5.957 -1.9855,-1.985 -1.9855,-3.972 -1.9855,-5.957 z"
     id="Sudan-2"
     style="fill:#cccccc;fill-rule:evenodd;stroke:#000000;stroke-width:14.00833988;stroke-linejoin:round;stroke-miterlimit:4;stroke-opacity:0.90980392;stroke-dasharray:none;display:inline" /><path
     d="m 6630.9309,4537.4758 c -7.1982,60.316 -0.2481,145.454 -16.1338,211.975 17.8713,35.742 -71.4853,95.313 -95.3136,67.513 -158.8562,135.028 162.8274,144.956 206.5129,285.941 5.957,49.642 35.7427,89.356 71.4851,127.085 l 0,0 0,0 0,0 0,0 0,0 0,0 c 0,0 0,0 0,1.986 l -7.9426,0 -140.985,178.713 c -21.8426,9.929 -43.6853,25.814 -65.5279,49.643 l 0,0 c -11.9144,13.9 -23.8286,29.785 -35.7427,47.656 -140.9848,37.729 -274.0267,25.815 -411.0402,37.729 0,0 0,1.985 1.9855,1.985 l 0,0 0,0 c -1.9855,0 -1.9855,-1.985 -1.9855,-1.985 l -170.7703,-133.042 c -63.5425,81.414 -119.1421,-17.872 -192.613,37.728 l -73.4709,-43.685 -77.4426,-57.585 0,0 0,0 c 7.9429,-1.985 11.9142,-3.972 11.9142,-9.929 l -399.1263,-458.697 c -44.6784,-11.915 -118.2502,-60.764 -152.0071,-91.542 l -0.5316,5.617 69.3309,-55.465 0,-72.104 30.5057,-27.733 -2.7732,-41.599 41.5986,-38.825 0,-30.506 124.796,-27.732 44.372,66.558 19.4127,41.599 13.8663,19.412 58.2381,22.186 38.8253,-24.959 144.2089,2.773 27.7324,41.599 91.517,-5.547 63.7847,-52.691 61.0113,0 8.3198,-52.692 55.4649,-33.279 63.7847,19.413 69.3312,55.465 72.1043,2.773 94.2902,-85.971 5.5465,-30.505 74.8777,-72.105 19.4127,-8.319 -19.4127,-24.96 -2.7732,-80.424 -41.5988,-36.052 83.1974,-2.773 11.0928,-13.866 0,-16.64 80.4242,-11.093 -11.093,113.703 13.8662,94.29 0,22.187 41.5989,11.092 47.145,72.105 52.8887,8.32 m -486.8757,1009.456 c 0,0 1.9854,0 1.9854,1.986 0,-1.986 -1.9854,-1.986 -1.9854,-1.986 z m 7.9428,9.929 c 0,1.986 0,1.986 0,1.986 0,0 0,0 0,-1.986 z m 3.9715,7.943 c 0,1.986 0,1.986 0,1.986 0,0 0,0 0,-1.986 z m 1.9855,5.958 c 0,1.985 0,1.985 0,1.985 0,0 0,0 0,-1.985 z m -15.8857,-27.801 c 0,1.986 1.9854,1.986 1.9854,1.986 0,0 -1.9854,0 -1.9854,-1.986 z m 3.9715,5.957 1.9854,1.986 z m 1.9854,1.986 c 0,1.985 1.9854,1.985 1.9854,1.985 0,0 -1.9854,0 -1.9854,-1.985 z m 466.6397,-59.571 c 0,0 1.9854,0 1.9854,1.986 0,-1.986 -1.9854,-1.986 -1.9854,-1.986 z"
     id="Sudan-2-1"
     style="fill:#cccccc;fill-opacity:1;fill-rule:evenodd;stroke:#000000;stroke-width:14.00833988;stroke-linejoin:round;stroke-miterlimit:4;stroke-opacity:0.90980392;stroke-dasharray:none;display:inline" /></g></svg>